<svg viewBox="0 0 43 43" xmlns="http://www.w3.org/2000/svg">
  <defs>
    <symbol id="depart" viewBox="0 0 24 24"><path d="M13.5 5.5c1.1 0 2-.9 2-2s-.9-2-2-2-2 .9-2 2 .9 2 2 2zM9.8 8.9L7 23h2.1l1.8-8 2.1 2v6h2v-7.5l-2.1-2 .6-3C14.8 12 16.8 13 19 13v-2c-1.9 0-3.5-1-4.3-2.4l-1-1.6c-.4-.6-1-1-1.7-1-.3 0-.5.1-.8.1L6 8.3V13h2V9.6l1.8-.7"></path></symbol>
    <symbol id="arrive" viewBox="0 0 43 43"><path fill="#323232" d="M21.3,43L9.2,30.8c-3.5-3.2-5.7-7.9-5.7-13C3.5,8,11.5,0,21.3,0s17.8,8,17.8,17.8c0,5.1-2.2,9.8-5.7,13 L21.3,43z"></path></symbol>

    <symbol id="turn-left" viewBox="0 0 43 43"><path d="M33.502,5.999h-13.73v-4.73c0-1.13-0.8-1.59-1.779-1.03L3.743,8.468c-0.99,0.57-0.99,1.49,0,2.061l14.25,8.23 c0.98,0.56,1.779,0.101,1.779-1.03v-4.73h10.231v30h7v-30v-1.903V9.499C37.002,7.569,35.432,5.999,33.502,5.999z"></path></symbol>
    <symbol id="slightly-left-turn" viewBox="0 0 43 43"><path d="M31.93,1.518l-4.26,15.9c-0.289,1.1-1.189,1.34-1.99,0.54l-3.34-3.349L15,21.949v21.049H8l0.001-22.5 c0-0.959,0.39-1.839,1.03-2.469l8.359-8.37l-3.35-3.34c-0.801-0.801-0.561-1.7,0.539-1.99l15.9-4.26 C31.57-0.221,32.221,0.429,31.93,1.518z"></path></symbol>
    <symbol id="left-fork" viewBox="0 0 43 43">
        <path style="opacity:0.4" d="M40.128,8.04l-8.665,1.997c-0.625,0.169-0.763,0.68-0.304,1.139l1.607,1.608L24,22.9V9.981h2.213 c0.649,0,0.914-0.459,0.59-1.021l-4.715-7.539c-0.324-0.562-0.854-0.562-1.178,0L16.195,8.96c-0.322,0.561-0.059,1.021,0.59,1.021 h2.273V40H24v-9.574l12.261-14.148l1.564,1.565c0.459,0.459,0.971,0.322,1.139-0.304l1.996-8.665 C41.128,8.247,40.753,7.872,40.128,8.04z"></path>
        <path d="M2.04,8.87l2,8.67c0.16,0.62,0.68,0.76,1.13,0.3l1.57-1.559l10.319,12.4L19,31v9h5V29.34c0-0.84-0.3-1.62-0.8-2.22 c-0.07-0.09-0.15-0.17-0.23-0.25L10.231,12.78l1.609-1.6c0.46-0.46,0.32-0.97-0.3-1.14l-8.67-2C2.25,7.87,1.87,8.25,2.04,8.87z"></path>
    </symbol>
    <symbol id="left-roundabout-enter" viewBox="0 0 43 43">
        <path style="opacity:0.4" d="m 13.368933,17.714781 c 0,-4.686 3.815,-8.5000005 8.5,-8.5000005 3.816,0 7.053,2.5300005 8.123,6.0000005 0.804503,3.678523 -0.3604,5.546551 -0.3604,5.546551 l 5.4983,-1.191379 c 0.114688,-1.195254 0.291673,-2.589737 -9e-4,-4.355172 -1.174,-6.2600005 -6.659,-11.0000005 -13.26,-11.0000005 -7.456,0 -13.5000005,6.0440005 -13.5000005,13.5000005 0,6.601 4.7400005,12.086 11.0000005,13.259 l 0,-5.136 c -3.47,-1.07 -6,-4.307 -6,-8.123 z"></path>
        <path d="m 21.868933,26.214781 c -0.869,0 -1.709,-0.132 -2.5,-0.376 l 0,4.376 0,0.759 0,8.241 5,0 0,-8.241 c 1.36325,-0.2555 3.185918,-1.070196 4.260395,-1.811969 3.816531,-2.714849 0.648862,-6.466848 -3.789223,-3.728643 -0.949069,0.406865 -2.021607,0.781612 -2.971172,0.781612 z"></path>
        <path d="m 22.842136,22.024689 c -0.775898,0.206866 -0.947574,0.845044 -0.375977,1.413473 l 8.258184,8.255938 c 0.565473,0.564893 1.196223,0.395885 1.40349,-0.376064 l 3.021638,-11.279393 c 0.214219,-0.776917 -0.254772,-1.244464 -1.03041,-1.036633 l -4.438537,1.193702 z"></path>
    </symbol>
    <symbol id="left-roundabout-exit1" viewBox="0 0 43 43">
        <path style="opacity:0.4" d="M7,17.5C7,12.814,10.814,9,15.5,9c3.816,0,7.053,2.53,8.123,6h5.137C27.586,8.74,22.101,4,15.5,4 C8.044,4,2,10.044,2,17.5c0,6.601,4.74,12.086,11,13.259v-5.136C9.53,24.553,7,21.316,7,17.5z"></path>
        <path d="M41.481,18.227l-10.112,5.84c-0.697,0.405-1.27,0.074-1.269-0.729l0.004-3.355l-1.343,0.006 C27.744,25.443,23.453,29.737,18,30.759V39h-5v-8.241V30v-4.376C13.791,25.868,14.631,26,15.5,26c4.685,0,8.5-3.813,8.5-8.5 c0-0.87-0.133-1.71-0.377-2.5h5.137c0.001,0.004,0.001,0.008,0.002,0.012l1.343,0.006l-0.004-3.356c0-0.803,0.572-1.135,1.268-0.727 l10.113,5.838C42.173,17.174,42.173,17.826,41.481,18.227z M15,23h2V12h-1.867l-3.937,2.311l0.83,1.673l3.022-1.719L15,23z"></path>
    </symbol>
    <symbol id="left-roundabout-exit2" viewBox="0 0 43 43">
        <path style="opacity:0.4;" d="M30.261,32.108l-2.124,2.121l-2.832-2.828l2.124-2.121L30.261,32.108z M9.006,21.503 c0-4.686,3.819-8.499,8.511-8.499c1.429,0,2.774,0.357,3.957,0.981l3.648-3.64c-2.167-1.475-4.784-2.34-7.605-2.34 C10.052,8.006,4,14.049,4,21.503c0,6.6,4.746,12.084,11.014,13.257v-5.135C11.54,28.556,9.006,25.319,9.006,21.503z"></path>
        <path d="M17.056,21.527c0.586-0.424,1.033-0.817,1.339-1.18c0.308-0.363,0.463-0.766,0.463-1.209c0-0.151-0.026-0.301-0.076-0.447 c-0.052-0.146-0.135-0.274-0.25-0.385c-0.115-0.111-0.265-0.202-0.447-0.272c-0.182-0.071-0.404-0.105-0.666-0.105 c-0.302,0-0.565,0.04-0.786,0.121c-0.224,0.08-0.417,0.184-0.584,0.31c-0.168,0.126-0.315,0.262-0.439,0.409 c-0.126,0.146-0.234,0.279-0.327,0.4l-1.27-1.059c0.099-0.161,0.24-0.353,0.423-0.574c0.182-0.222,0.413-0.431,0.696-0.627 c0.282-0.197,0.621-0.366,1.014-0.507c0.394-0.141,0.848-0.212,1.363-0.212c0.605,0,1.123,0.081,1.552,0.243 c0.43,0.16,0.781,0.375,1.053,0.642c0.272,0.267,0.473,0.572,0.605,0.915c0.131,0.343,0.197,0.69,0.197,1.043 c0,0.423-0.058,0.802-0.173,1.135c-0.118,0.332-0.278,0.638-0.484,0.915c-0.207,0.277-0.45,0.54-0.727,0.787 c-0.28,0.247-0.579,0.492-0.901,0.734c-1.466,1.091-2.208,1.917-2.229,2.479h4.619v1.739h-6.903v-0.197 c0-0.575,0.058-1.098,0.173-1.572c0.116-0.474,0.295-0.912,0.536-1.315c0.243-0.403,0.55-0.784,0.918-1.142 C16.114,22.235,16.551,21.879,17.056,21.527z M36.922,1.047l-11.295,3.03c-0.78,0.2-0.95,0.84-0.38,1.409l2.373,2.37l-2.493,2.489 l-3.651,3.642c0.356,0.188,0.695,0.403,1.02,0.638c0.115,0.083,0.22,0.181,0.331,0.27c0.2,0.161,0.4,0.322,0.586,0.499 c0.121,0.117,0.231,0.245,0.345,0.368c0.157,0.169,0.313,0.34,0.456,0.522c0.109,0.138,0.207,0.285,0.307,0.43 c0.128,0.186,0.253,0.375,0.367,0.573c0.72,1.244,1.142,2.68,1.142,4.217c0,4.686-3.819,8.499-8.511,8.499 c-0.87,0-1.711-0.132-2.503-0.376v4.376v0.76V43h5.006v-8.239c6.271-1.172,11.014-6.654,11.014-13.258 c0-2.85-0.881-5.479-2.383-7.659l2.483-2.479l2.373,2.369c0.571,0.57,1.212,0.4,1.412-0.38l3.034-11.278 C38.154,1.307,37.693,0.847,36.922,1.047z"></path>
    </symbol>
    <symbol id="left-roundabout-exit3" viewBox="0 0 43 43">
        <path style="opacity:0.4" d="M30.033,23.007v-3h4.005v3H30.033z M27.429,29.285l-2.124,2.121l2.832,2.828l2.124-2.121 L27.429,29.285z M9.006,21.507c0-4.687,3.819-8.5,8.511-8.5c1.429,0,2.774,0.357,3.957,0.981l3.648-3.641 c-2.167-1.476-4.784-2.341-7.605-2.341C10.052,8.007,4,14.051,4,21.507c0,6.601,4.746,12.086,11.014,13.259V29.63 C11.54,28.56,9.006,25.323,9.006,21.507z"></path>
        <path d="M15.699,20.545h1.303c0.607,0,1.054-0.129,1.343-0.387c0.287-0.257,0.431-0.598,0.431-1.022c0-0.384-0.12-0.702-0.364-0.955 c-0.243-0.252-0.628-0.379-1.153-0.379c-0.284,0-0.536,0.028-0.759,0.084c-0.222,0.055-0.419,0.124-0.592,0.204 c-0.172,0.081-0.321,0.174-0.448,0.281c-0.126,0.106-0.234,0.209-0.326,0.309l-1.093-1.136c0.082-0.111,0.21-0.25,0.388-0.417 c0.177-0.166,0.407-0.328,0.69-0.485c0.283-0.156,0.613-0.289,0.993-0.401c0.379-0.112,0.812-0.167,1.297-0.167 c0.607,0,1.125,0.081,1.556,0.243c0.429,0.161,0.777,0.371,1.046,0.628c0.269,0.258,0.464,0.551,0.593,0.879 c0.125,0.328,0.188,0.664,0.188,1.008c0,0.343-0.048,0.649-0.143,0.917c-0.097,0.268-0.22,0.502-0.372,0.705 c-0.152,0.202-0.328,0.374-0.523,0.515c-0.198,0.141-0.403,0.258-0.615,0.348c0.212,0.062,0.427,0.152,0.644,0.273 c0.218,0.122,0.415,0.275,0.593,0.462c0.176,0.187,0.32,0.414,0.432,0.682c0.112,0.268,0.166,0.584,0.166,0.947 c0,0.536-0.099,1.005-0.295,1.409c-0.197,0.405-0.476,0.743-0.835,1.015c-0.358,0.273-0.784,0.48-1.274,0.621 c-0.491,0.142-1.024,0.212-1.601,0.212c-0.759,0-1.391-0.06-1.896-0.181c-0.507-0.122-0.875-0.237-1.108-0.349l0.425-1.622 c0.202,0.081,0.492,0.167,0.871,0.258c0.38,0.091,0.904,0.137,1.57,0.137c0.293,0,0.567-0.03,0.82-0.091 c0.251-0.06,0.473-0.151,0.659-0.273c0.188-0.121,0.334-0.275,0.441-0.461c0.106-0.187,0.158-0.412,0.158-0.675 c0-0.424-0.15-0.767-0.448-1.031c-0.297-0.262-0.781-0.393-1.448-0.393h-1.319V20.545z M36.922,1.047l-11.295,3.03 c-0.78,0.2-0.95,0.84-0.38,1.41l2.373,2.37l-2.493,2.49l-3.651,3.643c0.356,0.188,0.695,0.403,1.02,0.638 c0.115,0.083,0.22,0.181,0.331,0.27c0.2,0.161,0.4,0.322,0.586,0.5c0.121,0.117,0.231,0.245,0.345,0.368 c0.157,0.169,0.313,0.34,0.456,0.522c0.109,0.138,0.207,0.285,0.307,0.43c0.128,0.186,0.253,0.375,0.367,0.573 c0.72,1.245,1.142,2.68,1.142,4.218c0,4.687-3.819,8.5-8.511,8.5c-0.87,0-1.711-0.132-2.503-0.376v4.377v0.76v8.24h5.006v-8.24 c6.271-1.172,11.014-6.655,11.014-13.26c0-2.85-0.881-5.48-2.383-7.66l2.483-2.479l2.373,2.37c0.571,0.57,1.212,0.4,1.412-0.38 l3.034-11.28C38.154,1.307,37.693,0.847,36.922,1.047z"></path>
    </symbol>
    <symbol id="left-roundabout-exit4" viewBox="0 0 43 43">
        <path style="opacity:0.4" d="M28.399,19.722l-2.121-2.121l2.828-2.829l2.121,2.122L28.399,19.722z M35,29v-3h-4v3H35z M28.399,35.278l-2.121,2.121l2.828,2.828l2.121-2.121L28.399,35.278z M10,27.5c0-3.816,2.53-7.053,6-8.123v-5.136 C9.74,15.414,5,20.899,5,27.5s4.74,12.086,11,13.259v-5.136C12.53,34.553,10,31.316,10,27.5z"></path>
        <path d="M21,26v3h1v2h-1v2h-2v-2h-5v-1.842L17.699,22h2.246l-3.606,7H19v-3H21z M32,27.5c0-6.605-4.747-12.094-11.014-13.262 l-0.004-2.343l3.355,0.004c0.803,0,1.135-0.572,0.727-1.268L19.227,0.519c-0.4-0.692-1.053-0.692-1.453,0l-5.84,10.112 c-0.405,0.697-0.074,1.269,0.729,1.268l3.356-0.004l-0.008,2.344c-0.004,0-0.007,0.001-0.01,0.001v5.136 C16.791,19.132,17.631,19,18.5,19c4.685,0,8.5,3.813,8.5,8.5S23.185,36,18.5,36c-0.869,0-1.709-0.132-2.5-0.377V40v0.759V43h5 v-2.241C27.26,39.586,32,34.101,32,27.5z"></path>
    </symbol>


    <symbol id="turn-right" viewBox="0 0 43 43"><path d="M36.26,8.47L22.01,0.24C21.03-0.32,20.23,0.14,20.23,1.27V6H6.5C4.57,6,3,7.57,3,9.5v1.597V13v30h7V13h10.23v4.73 c0,1.13,0.8,1.59,1.779,1.03l14.25-8.229C37.25,9.96,37.25,9.04,36.26,8.47z"></path></symbol>
    <symbol id="slightly-right-turn" viewBox="0 0 43 43"><path d="M8.069,1.518l4.26,15.9c0.289,1.1,1.189,1.34,1.99,0.54l3.34-3.349l7.34,7.34v21.049h7l-0.001-22.5 c0-0.959-0.39-1.839-1.03-2.469l-8.359-8.37l3.35-3.34c0.801-0.801,0.56-1.7-0.539-1.99l-15.9-4.26 C8.429-0.221,7.778,0.429,8.069,1.518z"></path></symbol>
    <symbol id="right-fork" viewBox="0 0 43 43">
        <path style="opacity:0.4" d="M26.805,8.96L22.09,1.421c-0.323-0.562-0.854-0.562-1.178,0L16.197,8.96 c-0.324,0.561-0.06,1.021,0.59,1.021H19V22.9l-8.767-10.116l1.607-1.608c0.459-0.458,0.321-0.969-0.304-1.139L2.872,8.04 c-0.625-0.169-1,0.206-0.832,0.833l1.996,8.665c0.168,0.626,0.68,0.764,1.139,0.304l1.564-1.565L19,30.426V40h4.941V9.981h2.273 C26.863,9.981,27.127,9.521,26.805,8.96z"></path>
        <path d="M40.96,8.87l-2,8.67c-0.16,0.62-0.68,0.76-1.13,0.3l-1.57-1.559L25.94,28.68L24,31v9h-5V29.34c0-0.84,0.3-1.62,0.8-2.22 c0.07-0.09,0.15-0.17,0.23-0.25L32.77,12.78l-1.609-1.6c-0.46-0.46-0.32-0.97,0.3-1.14l8.67-2C40.75,7.87,41.13,8.25,40.96,8.87z"></path>
    </symbol>
    <symbol id="right-roundabout-enter" viewBox="0 0 43 43">
        <path style="opacity:0.4" d="m 13.368933,17.714781 c 0,-4.686 3.815,-8.5000005 8.5,-8.5000005 3.816,0 7.053,2.5300005 8.123,6.0000005 0.804503,3.678523 -0.3604,5.546551 -0.3604,5.546551 l 5.4983,-1.191379 c 0.114688,-1.195254 0.291673,-2.589737 -9e-4,-4.355172 -1.174,-6.2600005 -6.659,-11.0000005 -13.26,-11.0000005 -7.456,0 -13.5000005,6.0440005 -13.5000005,13.5000005 0,6.601 4.7400005,12.086 11.0000005,13.259 l 0,-5.136 c -3.47,-1.07 -6,-4.307 -6,-8.123 z"></path>
        <path d="m 21.868933,26.214781 c -0.869,0 -1.709,-0.132 -2.5,-0.376 l 0,4.376 0,0.759 0,8.241 5,0 0,-8.241 c 1.36325,-0.2555 3.185918,-1.070196 4.260395,-1.811969 3.816531,-2.714849 0.648862,-6.466848 -3.789223,-3.728643 -0.949069,0.406865 -2.021607,0.781612 -2.971172,0.781612 z"></path>
        <path d="m 22.842136,22.024689 c -0.775898,0.206866 -0.947574,0.845044 -0.375977,1.413473 l 8.258184,8.255938 c 0.565473,0.564893 1.196223,0.395885 1.40349,-0.376064 l 3.021638,-11.279393 c 0.214219,-0.776917 -0.254772,-1.244464 -1.03041,-1.036633 l -4.438537,1.193702 z"></path>
    </symbol>
    <symbol id="right-roundabout-exit1" viewBox="0 0 43 43">
        <path style="opacity:0.4" d="M7,17.5C7,12.814,10.814,9,15.5,9c3.816,0,7.053,2.53,8.123,6h5.137C27.586,8.74,22.101,4,15.5,4 C8.044,4,2,10.044,2,17.5c0,6.601,4.74,12.086,11,13.259v-5.136C9.53,24.553,7,21.316,7,17.5z"></path>
        <path d="M41.481,18.227l-10.112,5.84c-0.697,0.405-1.27,0.074-1.269-0.729l0.004-3.355l-1.343,0.006 C27.744,25.443,23.453,29.737,18,30.759V39h-5v-8.241V30v-4.376C13.791,25.868,14.631,26,15.5,26c4.685,0,8.5-3.813,8.5-8.5 c0-0.87-0.133-1.71-0.377-2.5h5.137c0.001,0.004,0.001,0.008,0.002,0.012l1.343,0.006l-0.004-3.356c0-0.803,0.572-1.135,1.268-0.727 l10.113,5.838C42.173,17.174,42.173,17.826,41.481,18.227z M15,23h2V12h-1.867l-3.937,2.311l0.83,1.673l3.022-1.719L15,23z"></path>
    </symbol>
    <symbol id="right-roundabout-exit2" viewBox="0 0 43 43">
        <path style="opacity:0.4;" d="M30.261,32.108l-2.124,2.121l-2.832-2.828l2.124-2.121L30.261,32.108z M9.006,21.503 c0-4.686,3.819-8.499,8.511-8.499c1.429,0,2.774,0.357,3.957,0.981l3.648-3.64c-2.167-1.475-4.784-2.34-7.605-2.34 C10.052,8.006,4,14.049,4,21.503c0,6.6,4.746,12.084,11.014,13.257v-5.135C11.54,28.556,9.006,25.319,9.006,21.503z"></path>
        <path d="M17.056,21.527c0.586-0.424,1.033-0.817,1.339-1.18c0.308-0.363,0.463-0.766,0.463-1.209c0-0.151-0.026-0.301-0.076-0.447 c-0.052-0.146-0.135-0.274-0.25-0.385c-0.115-0.111-0.265-0.202-0.447-0.272c-0.182-0.071-0.404-0.105-0.666-0.105 c-0.302,0-0.565,0.04-0.786,0.121c-0.224,0.08-0.417,0.184-0.584,0.31c-0.168,0.126-0.315,0.262-0.439,0.409 c-0.126,0.146-0.234,0.279-0.327,0.4l-1.27-1.059c0.099-0.161,0.24-0.353,0.423-0.574c0.182-0.222,0.413-0.431,0.696-0.627 c0.282-0.197,0.621-0.366,1.014-0.507c0.394-0.141,0.848-0.212,1.363-0.212c0.605,0,1.123,0.081,1.552,0.243 c0.43,0.16,0.781,0.375,1.053,0.642c0.272,0.267,0.473,0.572,0.605,0.915c0.131,0.343,0.197,0.69,0.197,1.043 c0,0.423-0.058,0.802-0.173,1.135c-0.118,0.332-0.278,0.638-0.484,0.915c-0.207,0.277-0.45,0.54-0.727,0.787 c-0.28,0.247-0.579,0.492-0.901,0.734c-1.466,1.091-2.208,1.917-2.229,2.479h4.619v1.739h-6.903v-0.197 c0-0.575,0.058-1.098,0.173-1.572c0.116-0.474,0.295-0.912,0.536-1.315c0.243-0.403,0.55-0.784,0.918-1.142 C16.114,22.235,16.551,21.879,17.056,21.527z M36.922,1.047l-11.295,3.03c-0.78,0.2-0.95,0.84-0.38,1.409l2.373,2.37l-2.493,2.489 l-3.651,3.642c0.356,0.188,0.695,0.403,1.02,0.638c0.115,0.083,0.22,0.181,0.331,0.27c0.2,0.161,0.4,0.322,0.586,0.499 c0.121,0.117,0.231,0.245,0.345,0.368c0.157,0.169,0.313,0.34,0.456,0.522c0.109,0.138,0.207,0.285,0.307,0.43 c0.128,0.186,0.253,0.375,0.367,0.573c0.72,1.244,1.142,2.68,1.142,4.217c0,4.686-3.819,8.499-8.511,8.499 c-0.87,0-1.711-0.132-2.503-0.376v4.376v0.76V43h5.006v-8.239c6.271-1.172,11.014-6.654,11.014-13.258 c0-2.85-0.881-5.479-2.383-7.659l2.483-2.479l2.373,2.369c0.571,0.57,1.212,0.4,1.412-0.38l3.034-11.278 C38.154,1.307,37.693,0.847,36.922,1.047z"></path>
    </symbol>
    <symbol id="right-roundabout-exit3" viewBox="0 0 43 43">
        <path style="opacity:0.4" d="M30.033,23.007v-3h4.005v3H30.033z M27.429,29.285l-2.124,2.121l2.832,2.828l2.124-2.121 L27.429,29.285z M9.006,21.507c0-4.687,3.819-8.5,8.511-8.5c1.429,0,2.774,0.357,3.957,0.981l3.648-3.641 c-2.167-1.476-4.784-2.341-7.605-2.341C10.052,8.007,4,14.051,4,21.507c0,6.601,4.746,12.086,11.014,13.259V29.63 C11.54,28.56,9.006,25.323,9.006,21.507z"></path>
        <path d="M15.699,20.545h1.303c0.607,0,1.054-0.129,1.343-0.387c0.287-0.257,0.431-0.598,0.431-1.022c0-0.384-0.12-0.702-0.364-0.955 c-0.243-0.252-0.628-0.379-1.153-0.379c-0.284,0-0.536,0.028-0.759,0.084c-0.222,0.055-0.419,0.124-0.592,0.204 c-0.172,0.081-0.321,0.174-0.448,0.281c-0.126,0.106-0.234,0.209-0.326,0.309l-1.093-1.136c0.082-0.111,0.21-0.25,0.388-0.417 c0.177-0.166,0.407-0.328,0.69-0.485c0.283-0.156,0.613-0.289,0.993-0.401c0.379-0.112,0.812-0.167,1.297-0.167 c0.607,0,1.125,0.081,1.556,0.243c0.429,0.161,0.777,0.371,1.046,0.628c0.269,0.258,0.464,0.551,0.593,0.879 c0.125,0.328,0.188,0.664,0.188,1.008c0,0.343-0.048,0.649-0.143,0.917c-0.097,0.268-0.22,0.502-0.372,0.705 c-0.152,0.202-0.328,0.374-0.523,0.515c-0.198,0.141-0.403,0.258-0.615,0.348c0.212,0.062,0.427,0.152,0.644,0.273 c0.218,0.122,0.415,0.275,0.593,0.462c0.176,0.187,0.32,0.414,0.432,0.682c0.112,0.268,0.166,0.584,0.166,0.947 c0,0.536-0.099,1.005-0.295,1.409c-0.197,0.405-0.476,0.743-0.835,1.015c-0.358,0.273-0.784,0.48-1.274,0.621 c-0.491,0.142-1.024,0.212-1.601,0.212c-0.759,0-1.391-0.06-1.896-0.181c-0.507-0.122-0.875-0.237-1.108-0.349l0.425-1.622 c0.202,0.081,0.492,0.167,0.871,0.258c0.38,0.091,0.904,0.137,1.57,0.137c0.293,0,0.567-0.03,0.82-0.091 c0.251-0.06,0.473-0.151,0.659-0.273c0.188-0.121,0.334-0.275,0.441-0.461c0.106-0.187,0.158-0.412,0.158-0.675 c0-0.424-0.15-0.767-0.448-1.031c-0.297-0.262-0.781-0.393-1.448-0.393h-1.319V20.545z M36.922,1.047l-11.295,3.03 c-0.78,0.2-0.95,0.84-0.38,1.41l2.373,2.37l-2.493,2.49l-3.651,3.643c0.356,0.188,0.695,0.403,1.02,0.638 c0.115,0.083,0.22,0.181,0.331,0.27c0.2,0.161,0.4,0.322,0.586,0.5c0.121,0.117,0.231,0.245,0.345,0.368 c0.157,0.169,0.313,0.34,0.456,0.522c0.109,0.138,0.207,0.285,0.307,0.43c0.128,0.186,0.253,0.375,0.367,0.573 c0.72,1.245,1.142,2.68,1.142,4.218c0,4.687-3.819,8.5-8.511,8.5c-0.87,0-1.711-0.132-2.503-0.376v4.377v0.76v8.24h5.006v-8.24 c6.271-1.172,11.014-6.655,11.014-13.26c0-2.85-0.881-5.48-2.383-7.66l2.483-2.479l2.373,2.37c0.571,0.57,1.212,0.4,1.412-0.38 l3.034-11.28C38.154,1.307,37.693,0.847,36.922,1.047z"></path>
    </symbol>
    <symbol id="right-roundabout-exit4" viewBox="0 0 43 43">
        <path style="opacity:0.4" d="M28.399,19.722l-2.121-2.121l2.828-2.829l2.121,2.122L28.399,19.722z M35,29v-3h-4v3H35z M28.399,35.278l-2.121,2.121l2.828,2.828l2.121-2.121L28.399,35.278z M10,27.5c0-3.816,2.53-7.053,6-8.123v-5.136 C9.74,15.414,5,20.899,5,27.5s4.74,12.086,11,13.259v-5.136C12.53,34.553,10,31.316,10,27.5z"></path>
        <path d="M21,26v3h1v2h-1v2h-2v-2h-5v-1.842L17.699,22h2.246l-3.606,7H19v-3H21z M32,27.5c0-6.605-4.747-12.094-11.014-13.262 l-0.004-2.343l3.355,0.004c0.803,0,1.135-0.572,0.727-1.268L19.227,0.519c-0.4-0.692-1.053-0.692-1.453,0l-5.84,10.112 c-0.405,0.697-0.074,1.269,0.729,1.268l3.356-0.004l-0.008,2.344c-0.004,0-0.007,0.001-0.01,0.001v5.136 C16.791,19.132,17.631,19,18.5,19c4.685,0,8.5,3.813,8.5,8.5S23.185,36,18.5,36c-0.869,0-1.709-0.132-2.5-0.377V40v0.759V43h5 v-2.241C27.26,39.586,32,34.101,32,27.5z"></path>
    </symbol>


    <symbol id="" viewBox="0 0 43 43"></symbol>
    <symbol id="" viewBox="0 0 43 43"></symbol>

    <symbol id="" viewBox="0 0 43 43"></symbol>
  </defs>
</svg>
