<svg viewBox="0 0 43 43" xmlns="http://www.w3.org/2000/svg">
  <defs>
    <symbol id="turn-left" viewBox="0 0 43 43"><path fill="#2c48a1" d="M33.502,5.999h-13.73v-4.73c0-1.13-0.8-1.59-1.779-1.03L3.743,8.468c-0.99,0.57-0.99,1.49,0,2.061l14.25,8.23 c0.98,0.56,1.779,0.101,1.779-1.03v-4.73h10.231v30h7v-30v-1.903V9.499C37.002,7.569,35.432,5.999,33.502,5.999z"></path></symbol>
    <g id="turn-right"><path fill="#2c48a1" d="M36.26,8.47L22.01,0.24C21.03-0.32,20.23,0.14,20.23,1.27V6H6.5C4.57,6,3,7.57,3,9.5v1.597V13v30h7V13h10.23v4.73 c0,1.13,0.8,1.59,1.779,1.03l14.25-8.229C37.25,9.96,37.25,9.04,36.26,8.47z"></path></g>
  </defs>
</svg>
