<svg viewBox="0 0 43 43" xmlns="http://www.w3.org/2000/svg">
  <defs>
    <symbol id="depart" viewBox="0 0 24 24"><path d="M13.5 5.5c1.1 0 2-.9 2-2s-.9-2-2-2-2 .9-2 2 .9 2 2 2zM9.8 8.9L7 23h2.1l1.8-8 2.1 2v6h2v-7.5l-2.1-2 .6-3C14.8 12 16.8 13 19 13v-2c-1.9 0-3.5-1-4.3-2.4l-1-1.6c-.4-.6-1-1-1.7-1-.3 0-.5.1-.8.1L6 8.3V13h2V9.6l1.8-.7"></path></symbol>
    <symbol id="arrive" viewBox="0 0 43 43"><path fill="#323232" d="M21.3,43L9.2,30.8c-3.5-3.2-5.7-7.9-5.7-13C3.5,8,11.5,0,21.3,0s17.8,8,17.8,17.8c0,5.1-2.2,9.8-5.7,13 L21.3,43z"></path></symbol>

    <symbol id="turn-left" viewBox="0 0 43 43"><path d="M33.502,5.999h-13.73v-4.73c0-1.13-0.8-1.59-1.779-1.03L3.743,8.468c-0.99,0.57-0.99,1.49,0,2.061l14.25,8.23 c0.98,0.56,1.779,0.101,1.779-1.03v-4.73h10.231v30h7v-30v-1.903V9.499C37.002,7.569,35.432,5.999,33.502,5.999z"></path></symbol>
    <symbol id="slightly-left-turn" viewBox="0 0 43 43"><path d="M31.93,1.518l-4.26,15.9c-0.289,1.1-1.189,1.34-1.99,0.54l-3.34-3.349L15,21.949v21.049H8l0.001-22.5 c0-0.959,0.39-1.839,1.03-2.469l8.359-8.37l-3.35-3.34c-0.801-0.801-0.561-1.7,0.539-1.99l15.9-4.26 C31.57-0.221,32.221,0.429,31.93,1.518z"></path></symbol>
    <symbol id="turn-right" viewBox="0 0 43 43"><path d="M36.26,8.47L22.01,0.24C21.03-0.32,20.23,0.14,20.23,1.27V6H6.5C4.57,6,3,7.57,3,9.5v1.597V13v30h7V13h10.23v4.73 c0,1.13,0.8,1.59,1.779,1.03l14.25-8.229C37.25,9.96,37.25,9.04,36.26,8.47z"></path></symbol>
    <symbol id="slightly-right-turn" viewBox="0 0 43 43"><path d="M8.069,1.518l4.26,15.9c0.289,1.1,1.189,1.34,1.99,0.54l3.34-3.349l7.34,7.34v21.049h7l-0.001-22.5 c0-0.959-0.39-1.839-1.03-2.469l-8.359-8.37l3.35-3.34c0.801-0.801,0.56-1.7-0.539-1.99l-15.9-4.26 C8.429-0.221,7.778,0.429,8.069,1.518z"></path></symbol>
    <symbol id="" viewBox="0 0 43 43"></symbol>
    <symbol id="" viewBox="0 0 43 43"></symbol>
    <symbol id="" viewBox="0 0 43 43"></symbol>
    <symbol id="" viewBox="0 0 43 43"></symbol>
    <symbol id="" viewBox="0 0 43 43"></symbol>
    <symbol id="" viewBox="0 0 43 43"></symbol>

    <symbol id="" viewBox="0 0 43 43"></symbol>
  </defs>
</svg>
