<svg xmlns="http://www.w3.org/2000/svg" style="display: none;">
    <symbol id="car" viewBox="0 0 496.474 496.474"><title>car</title><path style="fill:#E95353;" d="M489.544,269.628c-0.729-14.739-6.206-28.858-15.205-40.572 c-20.294-26.422-24.25-47.399-24.25-47.399c-15.934-41.751-30.099-69.57-40.51-87.226c-10.954-18.541-29.898-31.03-51.262-33.776 c-42.961-5.554-177.23-5.554-220.191,0c-21.349,2.762-40.293,15.251-51.247,33.776c-10.411,17.656-24.56,45.475-40.51,87.226 c0,0-3.956,20.977-24.25,47.399c-8.983,11.714-14.476,25.833-15.189,40.572c-1.536,31.977,7.727,39.005,16.012,111.368 c0.652,5.694,5.461,9.976,11.202,9.976h428.203c5.741,0,10.55-4.298,11.202-9.976c2.327-20.294,9.232-61.456,9.232-61.456 C488.83,299.076,490.149,282.397,489.544,269.628z"/><path style="fill:#168DE2;" d="M441.074,179.982c-12.567-31.449-25.383-58.911-38.136-80.803 c-9.666-16.555-26.717-28.113-45.583-30.642c-43.055-5.71-175.476-5.663-218.221,0c-18.866,2.529-35.918,14.088-45.584,30.642 c-12.924,22.171-25.91,50.005-38.291,80.803C183.662,190.082,312.655,190.082,441.074,179.982z"/><path style="fill:#FFFFFF;" d="M422.844,216.349c-4.903,1.536-9.464,3.693-13.281,5.834c-6.951,3.879-14.088,7.494-21.535,10.318 c-12.35,4.686-14.445,11.683-14.445,11.683c-0.372,0.481-0.729,0.962-1.071,1.458c-9.371,13.917,2.932,32.442,19.549,30.084 c24.033-3.398,43.83-10.364,53.884-14.398c5.756-2.312,10.255-7.121,11.729-13.157c0.14-0.574,0.264-1.148,0.372-1.707 C461.74,226.543,442.191,210.314,422.844,216.349z"/><path style="fill:#FFE21F;" d="M448.522,327.857h-26.733c-4.018,0-6.035,4.856-3.196,7.711l26.733,26.733 c2.839,2.839,7.711,0.822,7.711-3.196v-26.733C453.036,329.874,451.019,327.857,448.522,327.857z"/><path style="fill:#454545;" d="M473.547,380.965c-0.652,5.71-5.477,10.007-11.217,10.007h-51.433v29.851 c0,10.566,8.564,19.146,19.146,19.146h32.303c10.566,0,19.146-8.564,19.146-19.146v-93.448 C479.366,340.315,475.239,366.179,473.547,380.965z"/><path style="fill:#ED6262;" d="M496.107,159.083c-1.552-6.951-8.083-11.667-15.205-11.667h-12.909 c-8.27,0-14.972,6.703-14.972,14.972v9.2h-6.842l3.925,9.325h15.05c7.789,0,15.5-1.676,22.575-4.918 C494.105,173.078,497.674,166.096,496.107,159.083z"/><circle style="fill:#FFBD49;" cx="431.315" cy="240.46" r="18.82"/><circle style="fill:#FFDB6F;" cx="393.458" cy="255.308" r="13.824"/><polygon style="fill:#6F6F6F;" points="357.634,255.324 336.021,292.963 160.452,292.963 138.839,255.324 "/><path style="fill:#FFFFFF;" d="M123.945,245.642c-0.326-0.496-0.683-0.977-1.071-1.458c0,0-2.095-6.997-14.445-11.683 c-7.447-2.824-14.569-6.439-21.535-10.318c-3.832-2.141-8.378-4.298-13.281-5.834c-19.332-6.051-38.896,10.193-35.219,30.115 c0.109,0.574,0.233,1.133,0.357,1.707c1.474,6.035,5.973,10.845,11.729,13.157c10.054,4.034,29.851,11,53.9,14.398 C121.012,278.084,133.316,259.559,123.945,245.642z"/><path style="fill:#FFE21F;" d="M74.684,327.857H47.951c-2.498,0-4.515,2.017-4.515,4.515v26.733c0,4.018,4.872,6.035,7.711,3.196 l26.733-26.733C80.719,332.729,78.702,327.857,74.684,327.857z"/><path style="fill:#777777;" d="M426.226,374.511c-27.834-48.159-59.842-46.654-59.842-46.654H130.073 c0,0-31.992-1.505-59.842,46.654H22.119l0.59,6.206c0.543,5.834,5.415,10.256,11.248,10.256h428.56 c5.834,0,10.705-4.422,11.249-10.255l0.59-6.206L426.226,374.511L426.226,374.511z"/><path style="fill:#454545;" d="M34.143,390.988c-5.741,0-10.566-4.313-11.217-10.007c-1.691-14.786-5.834-40.665-7.944-53.589 v93.448c0,10.566,8.564,19.146,19.146,19.146H66.43c10.566,0,19.146-8.564,19.146-19.146v-29.851H34.143z"/><path style="fill:#ED6262;" d="M43.436,171.588v-9.2c0-8.27-6.703-14.972-14.957-14.972H15.571c-7.121,0-13.653,4.717-15.205,11.667 c-1.567,6.997,2.017,13.995,8.378,16.896c7.09,3.243,14.786,4.918,22.575,4.918h15.05l3.925-9.325h-6.858V171.588z"/><circle style="fill:#FFBD49;" cx="65.142" cy="240.46" r="18.82"/><circle style="fill:#FFDB6F;" cx="103.03" cy="255.308" r="13.824"/><g> <path style="fill:#6F6F6F;" d="M348.294,341.029H148.179c-3.134,0-5.663,2.544-5.663,5.663c0,3.134,2.529,5.663,5.663,5.663 h200.099c3.134,0,5.663-2.544,5.663-5.663C353.957,343.558,351.412,341.029,348.294,341.029z"/> <path style="fill:#6F6F6F;" d="M348.294,363.635H148.179c-3.134,0-5.663,2.544-5.663,5.663c0,3.134,2.529,5.663,5.663,5.663 h200.099c3.134,0,5.663-2.544,5.663-5.663C353.957,366.164,351.412,363.635,348.294,363.635z"/> </g><path style="fill:#3AA2EB;" d="M420.098,132.009v1.939c0,7.804-6.408,14.057-14.367,13.731c-7.339-0.465-12.955-7.028-12.955-14.522 v-27.834c0-6.563-5.461-11.559-12.024-11.388c-0.155,0-0.155,0-0.31,0c0,0,0,0-0.155,0c-6.563-0.155-12.024,4.841-12.024,11.388 v25.181c0,7.804-6.718,14.057-14.522,13.576c-7.339-0.31-12.955-7.028-12.955-14.367v-21.892c0-6.563-5.461-12.024-12.179-12.024 h-0.931c-6.253,0-11.404,5.151-11.404,11.404v28.47c0,7.804-6.563,14.041-14.522,13.731c-7.339-0.465-12.8-7.028-12.8-14.522V96.712 c0-6.082-5.306-11.233-11.559-10.768h-0.931c-6.408,0-11.543,5.151-11.543,11.404v39.021c0,7.494-6.082,13.731-13.731,13.731 c-7.339,0-13.421-5.927-13.576-13.265v-32.752c0-7.494-5.616-14.041-12.955-14.522c-7.959-0.31-14.367,5.927-14.367,13.731 l-0.155,30.255c0,7.804-6.392,14.041-14.367,13.731c-7.199-0.45-12.66-6.78-12.878-13.948V97.829c0-7.37-5.539-13.964-12.909-14.398 c-7.897-0.341-14.414,5.88-14.414,13.7v37.19c-0.217,7.618-6.609,13.684-14.445,13.374c-7.339-0.465-12.8-7.028-12.8-14.522v-27.85 c0-6.563-5.616-11.559-12.179-11.388c-0.155,0-0.155,0-0.155,0c-0.155,0-0.155,0-0.155,0c-6.718-0.155-12.179,4.841-12.179,11.388 v25.181c0,7.804-6.563,14.057-14.367,13.576c-6.796-0.264-11.854-5.942-12.722-12.521c-7.215,14.941-14.367,31.123-21.318,48.407 c128.403,10.116,257.412,10.116,385.815,0C434.139,162.636,427.126,146.655,420.098,132.009z"/></symbol>
    <symbol id="train" viewBox="0 0 493.382 493.382"><title>train</title><path style="fill:#E95353;" d="M405.907,0H87.474C61.766,0,40.929,20.837,40.929,46.545v339.534 c0,25.709,20.837,46.545,46.545,46.545h318.433c25.709,0,46.545-20.837,46.545-46.545V46.545C452.453,20.837,431.616,0,405.907,0z"/><path style="fill:#168DE2;" d="M102.99,324.018c-28.563-68.965-28.563-146.463,0-215.428c95.806,0,191.597,0,287.403,0 c28.563,68.965,28.563,146.463,0,215.428C294.586,324.018,198.78,324.018,102.99,324.018z"/><polygon style="fill:#454545;" points="381.502,493.382 449.474,493.382 382.402,432.624 336.912,432.624 353.777,455.618 139.59,455.618 156.47,432.624 110.98,432.624 43.908,493.382 111.88,493.382 128.419,470.838 364.963,470.838 "/><g> <path style="fill:#FFBD49;" d="M147.316,357.376h-40.929c-13.715,0-24.824,11.109-24.824,24.824 c0,13.7,11.109,24.824,24.824,24.824h40.929c13.7,0,24.824-11.109,24.824-24.824C172.141,368.5,161.016,357.376,147.316,357.376z"/> <path style="fill:#FFBD49;" d="M386.994,357.376h-40.929c-13.715,0-24.824,11.109-24.824,24.824 c0,13.7,11.109,24.824,24.824,24.824h40.929c13.715,0,24.824-11.109,24.824-24.824C411.819,368.5,400.71,357.376,386.994,357.376z"/> </g><g> <circle style="fill:#FFFFFF;" cx="246.691" cy="50.424" r="38.291"/> <path style="opacity:0.25;fill:#FFFFFF;enable-background:new ;" d="M362.046,108.591h-230.71 c-25.91,0-46.918,21.008-46.918,46.918v26.577c0,6.92,5.306,13.265,12.381,13.56c7.37,0.434,13.56-5.446,13.56-12.816v-23.769 c0-6.191,5.151-10.907,11.497-10.752c0,0,0,0,0.14,0c0,0,0,0,0.14,0c6.191-0.14,11.497,4.561,11.497,10.752v26.283 c0,7.075,5.151,13.265,12.086,13.7c7.385,0.295,13.436-5.43,13.622-12.629v-35.095c0-7.37,6.128-13.265,13.591-12.924 c6.966,0.419,12.179,6.641,12.179,13.591v33.513c0.202,6.765,5.368,12.738,12.148,13.172c7.509,0.295,13.56-5.601,13.56-12.971 l0.14-28.548c0-7.37,6.035-13.265,13.56-12.971c6.92,0.434,12.226,6.625,12.226,13.7v30.906c0.155,6.92,5.896,12.521,12.816,12.521 c7.215,0,12.971-5.896,12.971-12.955v-36.833c0-5.896,4.856-10.752,10.907-10.752c15.515,0,11.792,11.931,11.792,46.189 c0,7.075,5.151,13.25,12.086,13.7c7.509,0.295,13.7-5.601,13.7-12.955V160.83c0-5.896,4.856-10.752,10.752-10.752 c7.913,0,12.381,5.446,12.381,11.342v20.682c0,6.92,5.306,13.265,12.226,13.56c7.37,0.434,13.7-5.446,13.7-12.816v-23.769 c0-6.191,5.151-10.907,11.342-10.752c0.155,0,0.155,0,0.155,0c0.155,0,0.155,0,0.295,0c6.191-0.14,11.342,4.561,11.342,10.752 v26.283c0,7.075,5.306,13.265,12.226,13.7c7.509,0.295,13.56-5.601,13.56-12.971v-30.549 C408.964,129.598,387.956,108.591,362.046,108.591z"/> <path style="fill:#FFFFFF;" d="M390.392,331.776H102.99c-3.134,0-5.973-1.893-7.168-4.794c-29.556-71.385-29.556-149.985,0-221.37 c1.195-2.901,4.034-4.794,7.168-4.794h287.403c3.134,0,5.973,1.893,7.168,4.794c29.556,71.385,29.556,149.985,0,221.37 C396.35,329.883,393.526,331.776,390.392,331.776z M108.218,316.261h276.93c25.398-64.667,25.398-135.246,0-199.913h-276.93 C82.82,181.015,82.82,251.594,108.218,316.261z"/> </g></symbol>
    <symbol id="subway" viewBox="0 0 496.485 496.485"><title>subway</title><g> <polygon style="fill:#6F6F6F;" points="339.565,0 156.92,0 128.14,28.796 139.45,40.277 163.561,16.182 240.159,16.182 240.159,86.947 256.326,86.947 256.326,16.182 332.769,16.182 356.864,40.277 368.361,28.796 "/> <polygon style="fill:#6F6F6F;" points="371.029,496.485 424.774,496.485 357.035,431.538 323.925,431.538 339.797,453.415 156.688,453.415 172.56,431.538 139.45,431.538 71.711,496.485 125.44,496.485 145.377,469.023 351.108,469.023 "/> </g><path style="fill:#F3F3F3;" d="M384,68.174c-88.747-25.197-182.784-25.197-271.531,0c-32.318,9.185-54.427,39.052-54.427,72.657 v218.903c0,41.72,33.823,75.543,75.543,75.543h229.314c41.72,0,75.543-33.823,75.543-75.543V140.831 C438.443,107.225,416.334,77.359,384,68.174z"/><path style="fill:#FFBD49;" d="M58.042,286.673v73.061c0,41.72,33.823,75.543,75.543,75.543h229.314 c41.72,0,75.543-33.823,75.543-75.543v-73.061H58.042z"/><path style="fill:#168DE2;" d="M406.094,266.892V140.831c0-19.285-12.722-36.368-30.922-41.534 c-41.286-11.714-83.999-17.656-126.929-17.656s-85.644,5.942-126.929,17.656c-18.199,5.167-30.922,22.249-30.922,41.534v126.061 H406.094z"/><g> <path style="opacity:0.25;fill:#FFFFFF;enable-background:new ;" d="M90.391,266.892h315.687v-71.494 c0-6.734-5.167-12.893-12.04-13.188c-7.168-0.434-13.188,5.306-13.188,12.474v23.118c0,6.02-5.011,10.597-11.186,10.457 c0,0,0,0-0.14,0c0,0,0,0-0.14,0c-6.02,0.14-11.171-4.437-11.171-10.457v-25.569c0-6.873-5.011-12.893-11.745-13.328 c-7.184-0.279-13.064,5.275-13.25,12.272v34.133c0,7.168-5.973,12.893-13.219,12.583c-6.765-0.403-11.854-6.454-11.854-13.219 v-32.597c-0.202-6.578-5.213-12.381-11.823-12.8c-7.308-0.279-13.188,5.446-13.188,12.614l-0.14,27.772 c0,7.168-5.88,12.909-13.188,12.614c-6.734-0.434-11.885-6.454-11.885-13.328v-30.068c-0.14-6.734-5.741-12.179-12.474-12.179 c-7.028,0-12.614,5.741-12.614,12.614v35.824c0,5.725-4.732,10.457-10.612,10.457h-0.853c-5.741,0.434-10.612-4.298-10.612-9.883 v-35.033c0-6.873-5.011-12.893-11.745-13.328c-7.308-0.279-13.328,5.446-13.328,12.614v26.128c0,5.741-4.732,10.457-10.457,10.457 h-0.853c-6.16,0-11.171-5.011-11.171-11.031v-20.108c0-6.734-5.151-12.893-11.885-13.188c-7.168-0.434-13.328,5.306-13.328,12.474 v23.118c0,6.02-5.011,10.597-11.031,10.457c-0.14,0-0.14,0-0.14,0c-0.14,0-0.14,0-0.295,0c-6.02,0.14-11.031-4.437-11.031-10.457 v-25.569c0-6.873-5.151-12.893-11.9-13.328c-7.308-0.279-13.188,5.446-13.188,12.614v75.357H90.391z"/> <path style="opacity:0.25;fill:#FFFFFF;enable-background:new ;" d="M438.443,286.673H58.042v58.104 c0,8.114,6.222,15.546,14.507,15.888c8.626,0.512,15.888-6.392,15.888-15.034v0.171c0-7.246,6.035-12.769,13.467-12.598 c0,0,0,0,0.171,0c0,0,0,0,0.171,0c7.261-0.171,13.467,5.353,13.467,12.598v2.762c0,8.285,6.051,15.546,14.165,16.058 c8.657,0.341,15.748-6.361,15.981-14.801v-13.095c0-8.642,7.184-15.546,15.934-15.158c8.161,0.481,14.274,7.773,14.274,15.934 v11.233c0.233,7.928,6.284,14.926,14.243,15.438c8.813,0.341,15.888-6.563,15.888-15.189l0.171-5.43 c0-8.642,7.075-15.546,15.888-15.205c8.114,0.528,14.336,7.773,14.336,16.058v8.192c0.171,8.114,6.904,14.677,15.019,14.677 c8.456,0,15.189-6.904,15.189-15.189v-15.127c0-6.904,5.694-12.614,12.784-12.614c9.356,0,13.808,5.523,13.808,11.916v14.181 c0,8.285,6.051,15.546,14.165,16.058c8.813,0.341,16.058-6.563,16.058-15.189v-3.444c0-6.904,5.694-12.598,12.598-12.598h1.039 c7.432,0,13.467,6.035,13.467,13.296v-3.801c0,8.114,6.222,15.546,14.336,15.888c8.626,0.512,16.058-6.392,16.058-15.019v0.171 c0-7.246,6.035-12.769,13.297-12.598c0.171,0,0.171,0,0.171,0c0.171,0,0.171,0,0.341,0c7.246-0.171,13.297,5.353,13.297,12.598 v2.762c0,8.285,6.222,15.546,14.336,16.058c8.813,0.341,15.888-6.563,15.888-15.205L438.443,286.673L438.443,286.673z"/> </g><circle style="fill:#E95353;" cx="135.618" cy="350.332" r="37.64"/><path style="fill:#FFFFFF;" d="M135.618,395.497c-24.933,0-45.211-20.294-45.211-45.211c0-24.933,20.278-45.227,45.211-45.227 s45.227,20.294,45.227,45.227C180.829,375.203,160.551,395.497,135.618,395.497z M135.618,320.202 c-16.586,0-30.068,13.498-30.068,30.068c0,16.57,13.483,30.068,30.068,30.068c16.586,0,30.068-13.498,30.068-30.068 C165.686,333.7,152.188,320.202,135.618,320.202z"/><circle style="fill:#E95353;" cx="360.867" cy="350.332" r="37.64"/><path style="fill:#FFFFFF;" d="M360.867,395.497c-24.933,0-45.227-20.294-45.227-45.211c0-24.933,20.278-45.227,45.227-45.227 c24.933,0,45.227,20.294,45.227,45.227C406.094,375.203,385.8,395.497,360.867,395.497z M360.867,320.202 c-16.586,0-30.068,13.498-30.068,30.068c0,16.57,13.483,30.068,30.068,30.068c16.586,0,30.068-13.498,30.068-30.068 C390.935,333.7,377.453,320.202,360.867,320.202z"/></symbol>
    <symbol id="boat" viewBox="0 0 497.54 497.54"><title>boat</title><path style="fill:#86DAF1;" d="M370.975,142.414c-3.367-13.933-15.825-23.754-30.161-23.754H156.711 c-14.336,0-26.795,9.821-30.161,23.754l-45.04,186.57h334.507L370.975,142.414z"/><polygon style="fill:#6F6F6F;" points="63.077,324.748 133.997,497.54 248.762,497.54 248.762,232.882 "/><polygon style="fill:#777777;" points="434.448,324.748 248.762,232.882 248.762,497.54 363.528,497.54 "/><path style="fill:#DAEFF6;" d="M302.972,82.308H194.568c-8.564,0-15.515,6.951-15.515,15.515v20.852h139.435V97.823 C318.487,89.243,311.536,82.308,302.972,82.308z"/><rect x="232.068" style="fill:#CACACA;" width="33.373" height="82.292"/><path style="fill:#168DE2;" d="M312.359,147.658H185.166c-13.296,0-24.08,10.783-24.08,24.08s10.783,24.08,24.08,24.08h127.193 c13.296,0,24.079-10.783,24.079-24.08C336.438,158.441,325.655,147.658,312.359,147.658z"/><g> <path style="fill:#686868;" d="M133.997,497.54h24.576c-0.636-0.667-1.21-1.443-1.614-2.358c0,0,0,0-0.047-0.093 c0,0,0,0-0.047-0.093c-1.893-3.832-0.481-8.518,3.398-10.318l16.446-7.633c4.422-2.048,6.796-7.075,5.073-11.543 c-1.97-4.701-7.292-6.827-11.854-4.872l-21.969,10.193c-4.624,2.141-10.085,0.016-12.04-4.748 c-1.769-4.484,0.621-9.557,4.965-11.574l20.976-9.728c4.174-2.095,6.408-7.059,4.717-11.435c-2.001-4.794-7.432-6.858-12.04-4.717 l-17.92,8.192c-4.608,2.141-10.054,0.062-12.055-4.717c-1.738-4.468,0.605-9.573,5.027-11.636l19.347-8.968 c4.282-2.095,6.128-7.323,4.112-11.652c-2.095-4.515-7.447-6.408-11.885-4.344l-23.04,10.69c-3.693,1.707-8.145,0.078-9.899-3.693 c-2.312-4.996-0.481-8.751,2.932-10.333l22.559-10.457c4.422-2.048,6.796-7.075,5.073-11.543c-2.001-4.794-7.478-6.951-12.086-4.81 l-16.818,7.804c-3.693,1.707-8.145,0.078-9.852-3.615l-0.264-0.559c-1.846-3.972-0.109-8.688,3.77-10.488l12.94-6.004 c4.329-2.001,6.765-7.168,4.934-11.59c-1.862-4.732-7.385-6.997-12.009-4.856l-14.864,6.92c-3.879,1.8-8.316-0.062-10.023-3.972 c-0.047-0.093-0.047-0.093-0.047-0.093c-0.047-0.093-0.047-0.093-0.093-0.186c-1.893-3.832-0.434-8.425,3.444-10.224l16.446-7.633 c4.422-2.048,6.765-7.168,5.027-11.636c-0.977-2.358-2.808-4.034-4.949-4.887l-41.27,20.418L133.997,497.54z"/> <path style="fill:#686868;" d="M181.907,492.342l-11.171,5.182h23.211c-0.047-0.14-0.016-0.295-0.078-0.419 C192.008,492.373,186.531,490.217,181.907,492.342z"/> </g><path style="fill:#7C7C7C;" d="M363.528,497.54l70.935-172.792l-49.431-24.452c-1.862,0.977-3.429,2.529-4.251,4.701 c-1.583,4.515,0.931,9.557,5.415,11.45l16.694,7.075c3.925,1.66,5.539,6.206,3.786,10.1c-0.047,0.093-0.047,0.093-0.078,0.186 c0,0,0,0-0.047,0.093c-1.567,3.972-5.958,5.973-9.883,4.313l-15.112-6.392c-4.686-1.986-10.131,0.465-11.823,5.26 c-1.676,4.484,0.915,9.557,5.322,11.419l13.141,5.57c3.755,1.583,6.004,5.896,3.879,10.907c-1.583,3.739-5.973,5.523-9.728,3.941 l-17.067-7.23c-4.686-1.986-10.085,0.372-11.916,5.213c-1.583,4.515,0.962,9.464,5.446,11.357l22.9,9.697 c3.444,1.458,5.446,5.135,3.289,10.224c-1.629,3.832-6.02,5.616-9.759,4.034l-23.397-9.914c-4.499-1.893-9.79,0.155-11.729,4.748 c-1.862,4.406,0.155,9.557,4.515,11.512l19.642,8.316c4.499,1.908,6.997,6.935,5.415,11.45c-1.831,4.856-7.199,7.106-11.885,5.12 l-18.184-7.587c-4.686-1.986-10.054,0.279-11.885,5.12c-1.552,4.437,0.853,9.325,5.089,11.264l21.287,9.014 c4.422,1.877,6.966,6.858,5.353,11.388c-1.8,4.825-7.184,7.152-11.869,5.167l-22.295-9.433c-4.624-1.8-9.883,0.496-11.683,5.26 c-1.583,4.515,0.962,9.464,5.461,11.357l16.694,7.075c3.925,1.66,5.492,6.299,3.739,10.193c-0.047,0.093-0.047,0.093-0.047,0.093 c-0.047,0.093-0.047,0.093-0.047,0.093c-1.614,4.065-5.989,6.066-9.93,4.406l-15.096-6.392c-4.686-1.986-10.085,0.372-11.792,5.167 c-0.233,0.621-0.202,1.257-0.279,1.893h61.207V497.54z"/></symbol>
    <symbol id="bus" viewBox="0 0 496.175 496.175"><title>bus</title><path style="fill:#CACACA;" d="M474.205,125.137c-3.708,0-6.718-3.01-6.718-6.718V89.623c0-0.853-0.698-1.552-1.552-1.552h-67.863 c-3.708,0-6.718-3.01-6.718-6.718c0-3.724,3.01-6.718,6.718-6.718h67.863c8.27,0,14.988,6.734,14.988,14.988v28.781 C480.923,122.127,477.913,125.137,474.205,125.137z"/><path style="fill:#454545;" d="M489.456,99.351h-30.503c-3.708,0-6.718,3.01-6.718,6.718v70.609c0,3.708,3.01,6.718,6.718,6.718 h30.503c3.708,0,6.718-3.01,6.718-6.718v-70.609C496.175,102.346,493.165,99.351,489.456,99.351z"/><path style="fill:#CACACA;" d="M21.969,125.137c3.708,0,6.718-3.01,6.718-6.718V89.623c0-0.853,0.698-1.552,1.552-1.552h67.863 c3.708,0,6.718-3.01,6.718-6.718c0-3.724-3.01-6.718-6.718-6.718H30.239c-8.27,0-14.988,6.734-14.988,14.988v28.781 C15.251,122.127,18.261,125.137,21.969,125.137z"/><g> <path style="fill:#454545;" d="M37.221,99.351H6.718c-3.708,0-6.718,3.01-6.718,6.718v70.609c0,3.708,3.01,6.718,6.718,6.718 h30.503c3.708,0,6.718-3.01,6.718-6.718v-70.609C43.939,102.346,40.929,99.351,37.221,99.351z"/> <path style="fill:#454545;" d="M103.564,432.477v34.785c0,7.416,6.02,13.436,13.436,13.436h41.053 c7.432,0,13.436-6.02,13.436-13.436v-34.785H103.564z"/> <path style="fill:#454545;" d="M335.934,432.477v34.785c0,7.416,6.02,13.436,13.436,13.436h41.053 c7.432,0,13.436-6.02,13.436-13.436v-34.785H335.934z"/> </g><path style="fill:#FFCB5A;" d="M402.618,15.476H104.82c-22.28,0-40.324,18.06-40.324,40.324v255.1h378.461V55.816 C442.942,33.536,424.882,15.476,402.618,15.476z"/><path style="fill:#777777;" d="M402.618,35.646H104.82c-11.124,0-20.17,9.045-20.17,20.17v234.93h338.137V55.816 C422.788,44.691,413.743,35.646,402.618,35.646z"/><rect x="64.496" y="310.916" style="fill:#FFBD49;" width="378.446" height="74.131"/><path style="fill:#FFCB5A;" d="M64.496,385.047v34.785c0,14.848,12.04,26.888,26.888,26.888H416.07 c14.848,0,26.888-12.04,26.888-26.888v-34.785H64.496z"/><g> <path style="fill:#FFFFFF;" d="M178.657,325.36h-67.119c-3.708,0-6.718,3.01-6.718,6.718v31.791c0,3.708,3.01,6.718,6.718,6.718 h67.119c3.708,0,6.718-3.01,6.718-6.718v-31.791C185.375,328.37,182.365,325.36,178.657,325.36z"/> <path style="fill:#FFFFFF;" d="M395.9,325.36h-67.119c-3.708,0-6.718,3.01-6.718,6.718v31.791c0,3.708,3.01,6.718,6.718,6.718 H395.9c3.708,0,6.718-3.01,6.718-6.718v-31.791C402.618,328.37,399.608,325.36,395.9,325.36z"/> </g><path style="fill:#ED6262;" d="M278.342,347.982c0-5.741-4.375-10.674-11.109-13.529c-2.855-6.718-7.789-11.109-13.529-11.109 s-10.674,4.375-13.529,11.109c-6.718,2.855-11.109,7.789-11.109,13.529s4.391,10.674,11.109,13.514 c2.855,6.718,7.789,11.109,13.529,11.109s10.674-4.391,13.529-11.109C273.967,358.64,278.342,353.722,278.342,347.982z M253.719,327.377c3.041,0,5.834,2.095,7.99,5.384c-5.554-1.226-10.442-1.21-15.981,0 C247.87,329.472,250.678,327.377,253.719,327.377z M264.068,358.315c-6.439,2.265-13.886,2.389-20.682,0 c-2.281-6.454-2.389-13.917,0-20.682c6.439-2.265,13.886-2.389,20.682,0C266.318,344.056,266.457,351.504,264.068,358.315z M233.115,347.982c0-3.041,2.095-5.834,5.384-7.99c-1.21,5.554-1.21,10.426,0,15.981 C235.21,353.815,233.115,351.023,233.115,347.982z M253.719,368.57c-3.041,0-5.834-2.095-7.99-5.384 c5.539,1.21,10.426,1.21,15.981,0C259.553,366.476,256.76,368.57,253.719,368.57z M268.924,355.972c1.21-5.554,1.21-10.426,0-15.981 c3.289,2.157,5.384,4.949,5.384,7.99C274.323,351.023,272.229,353.815,268.924,355.972z"/><circle style="fill:#E95353;" cx="343.583" cy="347.982" r="15.205"/><circle style="fill:#168DE2;" cx="381.052" cy="347.982" r="15.205"/><circle style="fill:#E95353;" cx="126.34" cy="347.982" r="15.205"/><circle style="fill:#168DE2;" cx="163.84" cy="347.982" r="15.205"/><g> <path style="fill:#E95353;" d="M118.97,403.386H97.264c-6.889,0-12.49,5.585-12.49,12.49c0,6.889,5.585,12.49,12.49,12.49h21.706 c6.889,0,12.49-5.585,12.49-12.49C131.444,408.987,125.859,403.386,118.97,403.386z"/> <path style="fill:#E95353;" d="M410.174,403.386h-21.706c-6.889,0-12.49,5.585-12.49,12.49c0,6.889,5.585,12.49,12.49,12.49h21.706 c6.889,0,12.49-5.585,12.49-12.49C422.664,408.987,417.078,403.386,410.174,403.386z"/> </g><path style="fill:#6F6F6F;" d="M402.618,35.646H104.82c-11.14,0-20.17,9.03-20.17,20.17v56.398c0,7.215,5.523,13.808,12.893,14.119 c7.68,0.465,14.119-5.679,14.119-13.359V88.211c0-6.454,5.368-11.357,11.978-11.202c0,0,0,0,0.155,0c0,0,0,0,0.155,0 c6.439-0.155,11.962,4.763,11.962,11.202v27.384c0,7.37,5.368,13.808,12.583,14.274c7.696,0.295,13.995-5.663,14.196-13.157V80.159 c0-7.68,6.392-13.824,14.165-13.467c7.246,0.434,12.691,6.904,12.691,14.165v34.909c0.217,7.044,5.585,13.265,12.66,13.715 c7.835,0.31,14.119-5.834,14.119-13.498l0.155-29.743c0-7.68,6.299-13.824,14.119-13.514c7.215,0.465,12.738,6.904,12.738,14.274 v32.209c0.155,7.215,6.144,13.048,13.359,13.048c7.525,0,13.514-6.144,13.514-13.514V80.361c0-6.144,5.058-11.202,11.357-11.202 c8.332,0,12.272,4.918,12.272,10.581v37.531c0,7.37,5.368,13.808,12.583,14.274c7.835,0.31,14.274-5.834,14.274-13.498V90.058 c0-5.849,4.36-11.202,12.117-11.202c6.594,0,11.978,5.368,11.978,11.823v21.551c0,7.215,5.523,13.808,12.738,14.119 c7.68,0.465,14.274-5.679,14.274-13.359V88.211c0-5.942,4.577-11.202,11.978-11.202c0.155,0,0.155,0,0.31,0 c6.439-0.155,11.823,4.763,11.823,11.202v27.384c0,7.37,5.523,13.808,12.738,14.274c7.835,0.31,14.119-5.834,14.119-13.514v-60.54 C422.788,44.676,413.758,35.646,402.618,35.646z"/></symbol>
    <symbol id="bike" viewBox="0 0 494.545 494.545"><title>bike</title><g> <circle style="fill:#CACACA;" cx="394.504" cy="298.923" r="88.421"/> <circle style="fill:#CACACA;" cx="100.042" cy="298.923" r="88.421"/> </g><g> <path style="fill:#C1C1C1;" d="M100.057,210.517c-48.826,0-88.421,39.579-88.421,88.421c0,16.4,4.546,31.697,12.319,44.854 c1.939-2.544,3.305-5.57,3.305-9.014v-76.086c0-6.997,5.741-12.738,12.738-12.645c9.433,0,13.808,5.477,13.808,11.962v77.731 c0,8.27,6.128,15.546,14.289,16.043c20.589,0.915,15.95-20.232,15.95-74.426c0-7.618,6.749-13.405,13.607-12.645h0.186 c7.385-0.093,13.421,5.927,13.421,13.312V330c0,8.254,6.128,15.546,14.383,16.043c8.657,0.388,15.95-6.516,15.95-15.174V275.2 c0-7.292,6.128-12.738,13.421-12.629c0.093,0,0.093,0,0.202,0c8.301,0,13.607,5.927,13.607,12.629v53.729 c0,5.818,3.196,11.093,7.944,13.871c7.416-12.94,11.729-27.896,11.729-43.892C188.478,250.096,148.899,210.517,100.057,210.517z"/> <path style="fill:#C1C1C1;" d="M394.504,210.517c-48.826,0-88.421,39.579-88.421,88.421c0,16.4,4.546,31.697,12.319,44.854 c1.939-2.544,3.289-5.57,3.289-9.014v-76.086c0-6.997,5.741-12.738,12.738-12.645c9.433,0,13.808,5.477,13.808,11.962v77.731 c0,8.27,6.128,15.546,14.289,16.043c8.751,0.388,15.95-6.516,15.95-15.174v-59.268c0-6.997,5.741-12.738,12.738-12.738 c10.519,1.179,14.491,6.485,14.491,13.421V330c0,8.254,6.128,15.546,14.383,16.043c8.642,0.388,15.934-6.516,15.934-15.174V275.2 c0-7.292,6.128-12.738,13.421-12.629c0.093,0,0.093,0,0.186,0c0.093,0,0.093,0,0.202,0c7.292-0.093,13.421,5.337,13.421,12.629 v53.729c0,5.818,3.196,11.093,7.959,13.871c7.416-12.94,11.729-27.896,11.729-43.892 C482.909,250.096,443.33,210.517,394.504,210.517z"/> </g><g> <path style="fill:#777777;" d="M100.057,198.881C44.885,198.881,0,243.766,0,298.923C0,354.095,44.885,398.98,100.057,398.98 s100.057-44.901,100.057-100.057C200.114,243.751,155.229,198.881,100.057,198.881z M100.057,375.707 c-42.325,0-76.784-34.444-76.784-76.784s34.444-76.769,76.784-76.769s76.784,34.444,76.784,76.769 C176.842,341.264,142.398,375.707,100.057,375.707z"/> <path style="fill:#777777;" d="M394.504,198.881c-55.172,0-100.057,44.885-100.057,100.042 c0,55.172,44.885,100.057,100.057,100.057s100.042-44.901,100.042-100.057C494.545,243.751,449.676,198.881,394.504,198.881z M394.504,375.707c-42.341,0-76.784-34.444-76.784-76.784s34.444-76.769,76.784-76.769s76.769,34.444,76.769,76.769 C471.273,341.264,436.829,375.707,394.504,375.707z"/> </g><path style="fill:#F3F3F3;" d="M407.568,298.24L356.15,111.003l-24.095,0.14l10.147,36.973H174.313l-17.284-35.887 c-2.793-5.803-9.759-8.254-15.531-5.446c-5.787,2.793-8.223,9.744-5.43,15.531l18.51,38.431L89.631,292.437 c-3.801,7.727,1.831,16.787,10.442,16.787H233.41c0.031,0,0.062-0.016,0.093-0.016c3.708-0.047,6.858-1.707,8.626-3.925 L351.884,183.35L385.117,304.4c1.645,5.973,7.835,9.868,14.305,8.145C405.628,310.838,409.274,304.431,407.568,298.24z M118.768,285.952l48.624-98.568l47.476,98.568H118.768z M236.358,276.907L185.53,171.373h145.827L236.358,276.907z"/><path style="fill:#FFCB5A;" d="M193.288,123.539h-69.896c-6.423,0-11.636-5.213-11.636-11.636c0-6.423,5.213-11.636,11.636-11.636 h69.896c6.423,0,11.636,5.213,11.636,11.636S199.711,123.539,193.288,123.539z"/><path style="fill:#ED6262;" d="M410.515,147.634c-8.564,0-15.515-6.935-15.515-15.515v-5.523h-53.713 c-8.564,0-15.515-6.935-15.515-15.515s6.951-15.515,15.515-15.515h69.229c8.564,0,15.515,6.935,15.515,15.515v21.039 C426.031,140.699,419.08,147.634,410.515,147.634z"/></symbol>
    <symbol id="cable-car" viewBox="0 0 496.442 496.442"><title>cable-car</title><path style="fill:#FFCB5A;" d="M409.788,156.926H85.506c-17.129,0-31.03,13.886-31.03,31.03V458.54 c0,17.144,13.902,31.03,31.03,31.03h324.282c17.144,0,31.03-13.886,31.03-31.03V187.956 C440.818,170.812,426.917,156.926,409.788,156.926z"/><path style="fill:#F3F3F3;" d="M54.476,388.645v69.88c0,17.144,13.902,31.03,31.03,31.03h324.282c17.144,0,31.03-13.886,31.03-31.03 v-69.88H54.476z"/><rect x="54.429" y="388.645" style="fill:#ED6262;" width="386.343" height="15.67"/><g> <rect x="263.154" y="187.956" style="fill:#168DE2;" width="146.634" height="155.307"/> <rect x="85.459" y="187.956" style="fill:#168DE2;" width="146.634" height="155.307"/> </g><path style="fill:#CACACA;" d="M292.044,126.004h-88.809c-8.564,0-15.515,6.951-15.515,15.515v15.407h119.839v-15.407 C307.559,132.955,300.624,126.004,292.044,126.004z"/><rect x="224.708" y="43.836" style="fill:#F3F3F3;" width="45.878" height="82.168"/><path style="fill:#777777;" d="M0.157,90.661c-1.21-8.487,4.701-16.337,13.188-17.548L478.738,7.018 c8.533-1.164,16.337,4.717,17.548,13.188c1.21,8.487-4.701,16.337-13.188,17.548L17.705,103.848 C9.234,105.059,1.367,99.163,0.157,90.661z"/><g> <path style="fill:#3AA2EB;" d="M232.124,187.956H85.506v40.619c0,3.134,2.405,5.989,5.585,6.128 c3.32,0.202,6.128-2.467,6.128-5.787v-14.01c0-2.793,2.327-4.918,5.198-4.856c0,0,0,0,0.062,0c0,0,0,0,0.062,0 c2.793-0.062,5.198,2.064,5.198,4.856v12.598c0,3.196,2.327,5.989,5.461,6.191c3.336,0.124,6.066-2.451,6.16-5.71v-12.971 c0-3.336,2.777-5.989,6.144-5.849c3.15,0.186,5.508,2.994,5.508,6.144v14.336c0.093,3.056,2.42,5.756,5.492,5.942 c3.398,0.14,6.128-2.529,6.128-5.849l0.062-15.717c0-3.336,2.731-5.989,6.128-5.865c3.134,0.202,5.523,2.994,5.523,6.191v13.995 c0.062,3.134,2.669,5.663,5.787,5.663c3.258,0,5.865-2.669,5.865-5.849v-13.048c0-2.669,2.203-4.856,4.934-4.856h0.403 c2.669-0.202,4.934,2.001,4.934,4.592v14.088c0,3.196,2.327,5.989,5.461,6.191c3.398,0.14,6.191-2.529,6.191-5.849v-13.56 c0-2.669,2.203-4.856,4.856-4.856h0.403c2.87,0,5.198,2.327,5.198,5.12v12.148c0,3.134,2.405,5.989,5.523,6.128 c3.32,0.202,6.191-2.467,6.191-5.787v-13.56c0-2.793,2.327-4.918,5.12-4.856c0.062,0,0.062,0,0.062,0c0.062,0,0.062,0,0.14,0 c2.793-0.062,5.12,2.064,5.12,4.856v12.924c0,3.196,2.389,5.989,5.523,6.191c3.398,0.14,6.128-2.529,6.128-5.865v-40.2H232.124z"/> <path style="fill:#3AA2EB;" d="M409.788,187.956H263.154v40.619c0,3.134,2.405,5.989,5.585,6.128 c3.336,0.202,6.129-2.467,6.129-5.787v-14.01c0-2.793,2.327-4.918,5.198-4.856c0,0,0,0,0.062,0c0,0,0,0,0.062,0 c2.793-0.062,5.198,2.064,5.198,4.856v12.598c0,3.196,2.327,5.989,5.461,6.191c3.336,0.124,6.066-2.451,6.159-5.71v-12.971 c0-3.336,2.777-5.989,6.144-5.849c3.15,0.186,5.508,2.994,5.508,6.144v14.336c0.093,3.056,2.42,5.756,5.492,5.942 c3.398,0.14,6.128-2.529,6.128-5.849l0.062-15.717c0-3.336,2.731-5.989,6.128-5.865c3.134,0.202,5.523,2.994,5.523,6.191v13.995 c0.062,3.134,2.669,5.663,5.787,5.663c3.258,0,5.865-2.669,5.865-5.849v-13.048c0-2.669,2.203-4.856,4.918-4.856h0.403 c2.669-0.202,4.918,2.001,4.918,4.592v14.088c0,3.196,2.327,5.989,5.461,6.191c3.398,0.14,6.191-2.529,6.191-5.849v-13.56 c0-2.669,2.203-4.856,4.856-4.856h0.388c2.855,0,5.198,2.327,5.198,5.12v12.148c0,3.134,2.389,5.989,5.523,6.128 c3.32,0.202,6.191-2.467,6.191-5.787v-13.56c0-2.793,2.327-4.918,5.12-4.856c0.062,0,0.062,0,0.062,0c0.062,0,0.062,0,0.14,0 c2.793-0.062,5.12,2.064,5.12,4.856v12.924c0,3.196,2.389,5.989,5.523,6.191c3.398,0.14,6.128-2.529,6.128-5.865L409.788,187.956 L409.788,187.956z"/> </g><path style="fill:#E2E2E2;" d="M426.079,436.09c-8.766-0.528-16.136,6.485-16.136,15.251v4.406c0,7.37-6.144,12.971-13.684,12.8 c0,0,0,0-0.171,0c0,0,0,0-0.171,0c-7.37,0.171-13.684-5.446-13.684-12.8v-0.667c0-8.409-6.144-15.779-14.383-16.306 c-8.797-0.341-15.981,6.47-16.229,15.034v1.629c0,8.782-7.308,15.779-16.182,15.391c-8.285-0.496-14.507-7.897-14.507-16.182v-5.26 c-0.233-8.052-6.392-15.158-14.476-15.67c-8.937-0.341-16.136,6.672-16.136,15.438l-0.171,8.89c0,8.766-7.184,15.794-16.136,15.438 c-8.239-0.528-14.553-7.897-14.553-16.306v-4.36c-0.171-8.239-7.013-14.91-15.251-14.91c-8.595,0-15.438,7.013-15.438,15.438v1.877 c0,6.703-4.996,12.8-14.026,12.8c-7.013,0.528-12.971-5.26-12.971-12.102v-4.608c0-8.425-6.144-15.779-14.383-16.306 c-8.937-0.357-16.306,6.656-16.306,15.438v3.227c0,6.672-4.965,12.8-13.855,12.8c-7.54,0-13.684-6.128-13.684-13.498v0.481 c0-8.239-6.315-15.779-14.553-16.136c-8.766-0.528-16.306,6.485-16.306,15.251v3.196c0,7.37-6.144,12.971-13.498,12.8 c-0.171,0-0.171,0-0.171,0c-0.171,0-0.171,0-0.357,0c-7.37,0.171-13.498-5.446-13.498-12.8v-1.567 c0-8.409-6.315-15.779-14.553-16.306c-8.937-0.341-16.136,6.672-16.136,15.438v5.213c0,17.144,13.902,31.03,31.03,31.03h324.282 c17.144,0,31.03-13.886,31.03-31.03v-6.299C440.818,443.987,434.504,436.447,426.079,436.09z"/></symbol>
    <symbol id="boat-1" viewBox="0 0 496.485 496.485"><title>boat-1</title><rect x="221.51" style="fill:#ED6262;" width="53.465" height="49.695"/><rect x="123.749" y="117.884" style="fill:#E5E5E5;" width="249.018" height="200.471"/><path style="fill:#CACACA;" d="M387.072,98.521H109.413c-10.69,0-19.363,8.673-19.363,19.363c0,10.69,8.673,19.363,19.363,19.363 h277.659c10.69,0,19.363-8.673,19.363-19.363C406.435,107.194,397.777,98.521,387.072,98.521z"/><g> <rect x="142.227" y="154.779" style="fill:#168DE2;" width="96.784" height="65.303"/> <rect x="257.396" y="154.779" style="fill:#168DE2;" width="96.784" height="65.303"/> </g><polygon style="fill:#6F6F6F;" points="248.242,203.109 71.184,332.381 138.814,496.485 357.671,496.485 425.301,332.381 "/><polygon style="fill:#606060;" points="248.367,203.202 248.367,496.485 357.671,496.485 425.301,332.381 "/><path style="fill:#FFCB5A;" d="M319.488,48.842H176.981c-17.144,0-31.03,13.886-31.03,31.03v18.649h204.567V79.872 C350.518,62.728,336.632,48.842,319.488,48.842z"/><g> <path style="fill:#3AA2EB;" d="M142.227,184.661c0.155,5.198,4.127,9.79,9.34,10.116c5.772,0.233,10.426-4.298,10.426-9.961 l0.109-7.696c0-5.663,4.639-10.193,10.426-9.961c5.322,0.341,9.402,5.104,9.402,10.535v5.911c0.109,5.322,4.53,9.619,9.852,9.619 c5.554,0,9.961-4.53,9.961-9.961v-7.478c0-4.53,3.739-8.27,8.378-8.27h0.683c4.53-0.341,8.378,3.398,8.378,7.82v9.2 c0,5.43,3.956,10.193,9.294,10.535c5.772,0.233,10.535-4.298,10.535-9.961v-30.317h-96.784V184.661z"/> <path style="fill:#3AA2EB;" d="M257.474,184.661c0.155,5.198,4.127,9.79,9.34,10.116c5.772,0.233,10.411-4.298,10.411-9.961 l0.109-7.696c0-5.663,4.639-10.193,10.426-9.961c5.322,0.341,9.402,5.104,9.402,10.535v5.911c0.109,5.322,4.53,9.619,9.852,9.619 c5.554,0,9.961-4.53,9.961-9.961v-7.478c0-4.53,3.739-8.27,8.378-8.27h0.683c4.53-0.341,8.378,3.398,8.378,7.82v9.2 c0,5.43,3.956,10.193,9.294,10.535c5.772,0.233,10.535-4.298,10.535-9.961v-30.317h-96.768L257.474,184.661L257.474,184.661z"/> </g><path style="fill:#FFBD49;" d="M319.488,48.842H176.981c-16.601,0-30.037,13.064-30.875,29.448c1.226,0.869,2.591,1.52,4.189,1.583 c4.81,0.295,8.859-3.568,8.859-8.378v-0.9c0-4.034,3.367-7.121,7.509-7.028c0,0,0,0,0.093,0c0,0,0,0,0.093,0 c4.034-0.093,7.509,2.979,7.509,7.028v0.869c0,4.624,3.367,8.657,7.897,8.952c4.825,0.186,8.782-3.537,8.906-8.239v-0.078 c0-4.825,4.003-8.657,8.89-8.44c4.546,0.279,7.959,4.329,7.959,8.875v3.025c0.14,4.422,3.506,8.316,7.944,8.595 c4.903,0.202,8.859-3.662,8.859-8.471l0.093-1.35c0-4.81,3.941-8.673,8.859-8.471c4.53,0.295,7.99,4.329,7.99,8.952v-0.171 c0.093,4.53,3.848,8.176,8.378,8.176c4.717,0,8.471-3.848,8.471-8.471v-2.126c0-3.677,2.746-7.028,7.696-7.028 c3.848-0.295,7.121,2.886,7.121,6.64v-0.124c0,4.624,3.367,8.657,7.897,8.952c4.903,0.186,8.952-3.662,8.952-8.471v-0.434 c0-3.646,2.715-7.028,7.602-7.028c4.143,0,7.509,3.367,7.509,7.401v1.195c0,4.53,3.46,8.657,7.99,8.859 c4.81,0.295,8.952-3.568,8.952-8.378v-3.212c0-4.034,3.367-7.121,7.416-7.028c0.093,0,0.093,0,0.093,0c0.093,0,0.093,0,0.186,0 c4.049-0.093,7.416,2.979,7.416,7.028v0.388c0,4.624,3.46,8.657,7.99,8.952c1.893,0.078,3.537-0.59,4.98-1.536 C349.603,61.968,336.136,48.842,319.488,48.842z"/></symbol>
    <symbol id="plane" viewBox="0 0 496.485 496.485"><title>plane</title><g> <path style="fill:#FFBD49;" d="M89.414,180.604c-15.344,0-27.803,12.443-27.803,27.803v64.621h55.591v-64.636 C117.201,193.047,104.758,180.604,89.414,180.604z"/> <path style="fill:#FFBD49;" d="M407.071,180.604c-15.345,0-27.803,12.443-27.803,27.803v64.621h55.591v-64.636 C434.874,193.047,422.431,180.604,407.071,180.604z"/> </g><polygon style="fill:#CACACA;" points="248.242,143.383 0,264.805 0,288.652 496.485,288.652 496.485,264.805 "/><path style="fill:#C1C1C1;" d="M456.828,258.909v-0.559c0,9.464-7.882,16.679-17.579,16.446c0,0,0,0-0.217,0c0,0,0,0-0.217,0 c-9.464,0.217-17.579-6.982-17.579-16.446v-3.258c0-10.814-7.897-20.278-18.479-20.961c-11.295-0.434-20.542,8.301-20.852,19.316 v8.999c0,11.28-9.387,20.278-20.79,19.782c-10.643-0.636-18.634-10.147-18.634-20.79v-6.578 c-0.31-10.349-8.207-19.487-18.587-20.139c-11.497-0.45-20.728,8.564-20.728,19.828l-0.233,6.749 c0,11.264-9.232,20.294-20.728,19.828c-10.597-0.667-18.711-10.147-18.711-20.961v-10.349c-0.217-10.597-9.014-19.161-19.611-19.161 c-11.047,0-19.828,9.014-19.828,19.828v11.652c0,8.642-6.439,16.446-18.029,16.446c-9.014,0.683-16.679-6.765-16.679-15.546V252.61 c0-10.814-7.882-20.278-18.479-20.961c-11.497-0.45-20.961,8.564-20.961,19.828v4.158c0,9.014-7.432,16.446-16.446,16.446 c-12.102,0-18.928-8.332-18.928-17.346v5.306c0-10.597-8.114-20.294-18.711-20.744c-11.264-0.683-20.961,8.347-20.961,19.611v-0.559 c0,9.464-7.882,16.679-17.346,16.446c-0.233,0-0.233,0-0.233,0c-11.171,0-17.796-7.742-17.796-16.446v-3.258 c0-3.072-0.791-5.942-1.955-8.626L0,264.805v23.847h496.485v-23.847l-35.809-17.517 C458.271,250.546,456.828,254.549,456.828,258.909z"/><path style="fill:#F3F3F3;" d="M248.242,484.484L248.242,484.484c-9.464,0-17.439-6.997-18.68-16.368 c-18.044-135.944-40.06-233.239-29.618-369.571c1.939-25.29,22.931-86.497,48.299-86.497l0,0c25.367,0,46.359,61.207,48.299,86.497 c10.442,136.332-11.574,233.627-29.618,369.571C265.681,477.487,257.707,484.484,248.242,484.484z"/><path style="opacity:0.5;fill:#FFFFFF;enable-background:new ;" d="M228.336,362.643c-0.186-7.649,5.648-14.196,13.281-14.196 h1.427c8.735,0,16.368-6.361,16.927-14.926c0.357-9.123-6.703-16.586-15.593-16.834h-12.304c-9.107,0-16.384-7.571-15.965-16.787 c0.512-8.595,8.192-15.05,16.787-15.05h10.364c8.347-0.248,15.732-6.625,16.26-15.019c0.372-9.278-6.904-16.741-16.012-16.741 l-4.236-0.186c-9.092,0-16.384-7.463-16.012-16.741c0.543-8.549,8.192-15.096,16.927-15.096h7.152 c8.549-0.186,15.469-7.277,15.469-15.825c0-8.921-7.277-16.012-16.012-16.012h-14.46c-6.935,0-13.281-5.167-13.281-14.553 c-0.543-7.277,5.461-13.467,12.552-13.467h13.467c8.735,0,16.368-6.361,16.912-14.926c0.372-9.278-6.904-16.927-16.012-16.927 h-2.141c-6.951,0-13.281-5.182-13.281-14.367c0-7.82,6.361-14.196,14.01-14.196h-5.492c8.549,0,16.384-6.547,16.741-15.096 c0.543-9.092-6.734-16.927-15.825-16.927h1.676c-7.633,0-13.467-6.361-13.281-14.01c0-0.186,0-0.186,0-0.186 c0-9.014,6.253-14.367,13.281-14.367h1.427c8.735,0,16.368-6.547,16.927-15.096c0.171-4.313-1.427-8.13-3.972-11.093 c-2.529-1.21-5.105-2.017-7.742-2.017c-25.367,0-46.359,61.207-48.299,86.497c-8.875,115.821,5.694,203.559,21.333,310.675h17.734 c8.549,0,16.384-6.547,16.741-15.282c0.543-9.092-6.734-16.741-15.825-16.741h1.676c-7.633,0-13.467-6.361-13.281-14.196 c0,0,0,0,0-0.186C228.336,362.83,228.336,362.83,228.336,362.643z"/><polygon style="fill:#ED6262;" points="248.242,386.071 168.355,443.772 168.355,479.829 248.242,452.026 328.13,479.829 328.13,443.772 "/><path style="fill:#3AA2EB;" d="M221.029,66.676c4.903-8.72,15.236-15.608,29.324-16.027c14.103,0.403,24.545,7.308,29.324,16.027 c-10.224-4.53-15.05-8.378-29.324-8.27C236.435,58.283,230.896,62.363,221.029,66.676z"/></symbol>
    <symbol id="subway-1" viewBox="0 0 496.485 496.485"><title>subway-1</title><g> <polygon style="fill:#CACACA;" points="355.561,397.715 138.287,397.715 125.688,424.06 367.88,424.06 "/> <polygon style="fill:#CACACA;" points="373.139,442.865 120.304,442.865 102.912,479.201 390.129,479.201 "/> </g><g> <polygon style="fill:#777777;" points="122.089,381.626 65.738,496.485 119.048,496.485 158.937,381.626 "/> <polygon style="fill:#777777;" points="374.396,381.626 337.548,381.626 377.437,496.485 430.747,496.485 "/> </g><path style="fill:#FFDB6F;" d="M395.388,36.631H101.097c-17.144,0-31.03,13.886-31.03,31.03V350.58 c0,17.144,13.886,31.03,31.03,31.03h294.291c17.144,0,31.03-13.886,31.03-31.03V67.662 C426.418,50.533,412.532,36.631,395.388,36.631z"/><path style="fill:#FFBD49;" d="M316.059,0H180.441c-8.564,0-15.515,6.951-15.515,15.515v21.116h166.648V15.515 C331.574,6.951,324.624,0,316.059,0z"/><g> <rect x="102.865" y="69.43" style="fill:#168DE2;" width="128.977" height="157.572"/> <rect x="264.642" y="69.43" style="fill:#168DE2;" width="128.977" height="157.572"/> </g><circle style="fill:#FFFFFF;" cx="167.362" cy="304.252" r="45.103"/><circle style="fill:#ED6262;" cx="167.362" cy="304.252" r="31.62"/><circle style="fill:#FFFFFF;" cx="329.123" cy="304.252" r="45.103"/><circle style="fill:#ED6262;" cx="329.123" cy="304.252" r="31.62"/><g> <path style="fill:#3AA2EB;" d="M102.865,127.209c0,5.011,3.832,9.604,8.968,9.821c5.322,0.31,9.806-3.956,9.806-9.294v-21.768 c0-4.484,3.739-7.897,8.316-7.789c0,0,0,0,0.109,0c0,0,0,0,0.109,0c4.484-0.093,8.332,3.32,8.332,7.789v23.583 c0,5.12,3.739,9.604,8.751,9.914c5.353,0.202,9.728-3.925,9.868-9.138v-29.96c0-5.337,4.437-9.604,9.852-9.356 c5.027,0.295,8.813,4.794,8.813,9.837v28.812c0.14,4.903,3.879,9.216,8.797,9.542c5.446,0.217,9.821-4.049,9.821-9.387 l0.109-25.228c0-5.337,4.375-9.604,9.821-9.387c5.011,0.326,8.859,4.794,8.859,9.93v26.934c0.109,5.011,4.267,9.061,9.278,9.061 c5.229,0,9.387-4.267,9.387-9.387V69.43H102.865V127.209z"/> <path style="fill:#3AA2EB;" d="M264.642,127.209c0,5.011,3.832,9.604,8.968,9.821c5.337,0.326,9.821-3.941,9.821-9.278v-21.783 c0-4.484,3.739-7.897,8.316-7.789c0,0,0,0,0.109,0c0,0,0,0,0.109,0c4.484-0.109,8.316,3.305,8.316,7.789v23.583 c0,5.12,3.739,9.604,8.751,9.914c5.353,0.202,9.728-3.925,9.868-9.138v-29.96c0-5.337,4.437-9.604,9.852-9.356 c5.042,0.295,8.828,4.81,8.828,9.837v28.812c0.14,4.903,3.879,9.216,8.797,9.542c5.446,0.217,9.821-4.049,9.821-9.387l0.109-25.228 c0-5.337,4.375-9.604,9.821-9.387c5.011,0.326,8.859,4.794,8.859,9.93v26.934c0.109,5.011,4.267,9.061,9.278,9.061 c5.229,0,9.387-4.267,9.387-9.387V69.43H264.673v57.778H264.642z"/> </g></symbol>
    <symbol id="bus-1" viewBox="0 0 496.485 496.485"><title>bus-1</title><g> <path style="fill:#454545;" d="M79.127,480.97c0,8.564,6.951,15.515,15.515,15.515h50.828c8.564,0,15.515-6.951,15.515-15.515 v-48.33H79.127V480.97z"/> <path style="fill:#454545;" d="M335.484,432.64v48.33c0,8.564,6.951,15.515,15.515,15.515h50.843 c8.564,0,15.515-6.951,15.515-15.515v-48.33H335.484z"/> </g><path style="fill:#FFCB5A;" d="M407.459,0H89.026C63.317,0,42.48,20.837,42.48,46.545V401.61c0,25.709,20.837,46.545,46.545,46.545 h318.433c25.709,0,46.545-20.837,46.545-46.545V46.545C454.004,20.837,433.168,0,407.459,0z"/><rect x="42.48" y="74.349" style="fill:#F3F3F3;" width="411.524" height="257.427"/><rect x="57.996" y="89.879" style="fill:#168DE2;" width="380.494" height="226.397"/><g> <circle style="fill:#ED6262;" cx="120.568" cy="389.958" r="34.661"/> <circle style="fill:#ED6262;" cx="375.917" cy="389.958" r="34.661"/> </g><g> <path style="fill:#FFFFFF;" d="M120.568,432.376c-23.381,0-42.418-19.037-42.418-42.403c0-23.381,19.037-42.403,42.418-42.403 s42.418,19.022,42.418,42.403C162.971,413.339,143.95,432.376,120.568,432.376z M120.568,363.07 c-14.832,0-26.903,12.055-26.903,26.888c0,14.832,12.071,26.888,26.903,26.888s26.903-12.055,26.903-26.888 C147.456,375.125,135.401,363.07,120.568,363.07z"/> <path style="fill:#FFFFFF;" d="M375.917,432.376c-23.381,0-42.418-19.037-42.418-42.403c0-23.381,19.037-42.403,42.418-42.403 c23.381,0,42.403,19.022,42.403,42.403C418.335,413.339,399.313,432.376,375.917,432.376z M375.917,363.07 c-14.832,0-26.903,12.055-26.903,26.888c0,14.832,12.071,26.888,26.903,26.888c14.832,0,26.888-12.055,26.888-26.888 C402.82,375.125,390.749,363.07,375.917,363.07z"/> </g><g> <path style="fill:#ED6262;" d="M286.177,370.455h-75.885c-10.783,0-19.518,8.735-19.518,19.518 c0,10.768,8.735,19.518,19.518,19.518h75.885c10.768,0,19.518-8.735,19.518-19.518C305.695,379.19,296.96,370.455,286.177,370.455z "/> <path style="fill:#ED6262;" d="M310.877,18.789H185.623c-10.147,0-18.385,8.239-18.385,18.385c0,10.162,8.239,18.385,18.385,18.385 h125.254c10.147,0,18.385-8.239,18.385-18.385S321.024,18.789,310.877,18.789z"/> </g><rect x="240.795" y="77.933" style="fill:#F3F3F3;" width="14.91" height="250.259"/><g> <path style="fill:#454545;" d="M103.905,316.261l81.982-121.282c2.312-3.413,1.412-8.052-2.001-10.349 c-3.413-2.312-8.052-1.412-10.349,2.001l-87.63,129.645h17.998V316.261z"/> <path style="fill:#454545;" d="M327.323,316.261l81.982-121.282c2.312-3.413,1.412-8.052-2.001-10.349 c-3.413-2.312-8.052-1.412-10.349,2.001l-87.63,129.645h17.998V316.261z"/> </g><path style="opacity:0.15;fill:#FFFFFF;enable-background:new ;" d="M453.663,74.349H42.48v60.99 c0,8.782,6.718,16.803,15.686,17.175c9.325,0.559,17.175-6.904,17.175-16.244v-10.845c0-7.835,6.532-13.808,14.553-13.622 c0,0,0,0,0.186,0c0,0,0,0,0.186,0c7.835-0.186,14.553,5.787,14.553,13.622v14.01c0,8.952,6.532,16.803,15.298,17.361 c9.356,0.357,17.02-6.873,17.268-15.996v-25.166c0-9.34,7.773-16.803,17.222-16.384c8.813,0.528,15.438,8.409,15.438,17.222v23.18 c0.264,8.564,6.796,16.136,15.407,16.679c9.511,0.372,17.175-7.09,17.175-16.431l0.186-16.896c0-9.34,7.649-16.803,17.175-16.431 c8.766,0.559,15.484,8.409,15.484,17.361v19.89c0.186,8.766,7.463,15.872,16.244,15.872c9.138,0,16.415-7.463,16.415-16.431v-27.384 c0-7.463,6.16-13.622,13.808-13.622h1.117c7.463-0.559,13.808,5.601,13.808,12.878v26.376c0,8.952,6.532,16.803,15.298,17.361 c9.526,0.372,17.361-7.09,17.361-16.431v-14.77c0-7.463,6.16-13.622,13.622-13.622h1.117c8.021,0,14.553,6.532,14.553,14.367v6.92 c0,8.782,6.718,16.803,15.5,17.175c9.325,0.559,17.361-6.904,17.361-16.244v-10.845c0-7.835,6.532-13.808,14.367-13.622 c0.186,0,0.186,0,0.186,0c0.186,0,0.186,0,0.372,0c7.835-0.186,14.367,5.787,14.367,13.622v14.01c0,8.952,6.718,16.803,15.5,17.361 c9.526,0.372,17.175-7.09,17.175-16.431V74.349H453.663z"/></symbol>
    <symbol id="taxi" viewBox="0 0 496.469 496.469"><title>taxi</title><path style="fill:#EC9821;" d="M289.342,82.075c-27.4,0-54.8,0-82.199,0c0-13.824,0-27.648,0-41.472 c26.717-10.674,55.482-10.674,82.199,0C289.342,54.427,289.342,68.251,289.342,82.075z"/><g> <rect x="213.799" y="41.441" style="fill:#454545;" width="13.777" height="13.777"/> <rect x="227.576" y="55.218" style="fill:#454545;" width="13.777" height="13.777"/> <rect x="241.416" y="41.441" style="fill:#454545;" width="13.777" height="13.777"/> <rect x="255.131" y="55.218" style="fill:#454545;" width="13.777" height="13.777"/> <rect x="268.909" y="41.441" style="fill:#454545;" width="13.777" height="13.777"/> </g><g> <circle style="fill:#EC9821;" cx="21.644" cy="234.698" r="21.163"/> <rect x="21.644" y="247.296" style="fill:#EC9821;" width="44.808" height="8.58"/> <circle style="fill:#EC9821;" cx="474.919" cy="234.698" r="21.163"/> <rect x="430.08" y="247.296" style="fill:#EC9821;" width="44.808" height="8.58"/> </g><g> <path style="fill:#454545;" d="M27.803,387.615v45.227c0,17.129,13.886,31.03,31.03,31.03h22.342 c17.144,0,31.03-13.902,31.03-31.03v-45.227L27.803,387.615L27.803,387.615z"/> <path style="fill:#454545;" d="M384.279,387.615v45.227c0,17.129,13.886,31.03,31.03,31.03h22.342 c17.144,0,31.03-13.902,31.03-31.03v-45.227L384.279,387.615L384.279,387.615z"/> </g><path style="fill:#FFE21F;" d="M333.328,77.638c-56.46-7.696-113.711-7.696-170.17,0c-60.369,8.223-109.739,65.102-109.739,126.045 v58.228h389.648v-58.228C443.066,142.755,393.697,85.861,333.328,77.638z"/><path style="fill:#168DE2;" d="M69.306,246.008v-42.325c0-52.689,43.954-103.222,95.992-110.297 c27.4-3.724,55.296-5.616,82.944-5.616c27.648,0,55.544,1.893,82.944,5.616c52.038,7.075,95.992,57.592,95.992,110.297v42.325 H69.306z"/><path style="fill:#FFE21F;" d="M415.93,245.372c-111.399-14.926-223.977-14.926-335.376,0 c-31.558,4.236-55.125,31.294-55.125,63.131v88.995c148.542,0,297.084,0,445.611,0v-88.995 C471.056,276.651,447.488,249.592,415.93,245.372z"/><path style="fill:#777777;" d="M471.692,362.217H24.793C11.093,362.217,0,373.326,0,387.01v1.195 c0,13.7,11.109,24.793,24.793,24.793h446.883c13.7,0,24.793-11.109,24.793-24.793v-1.195 C496.485,373.31,485.376,362.217,471.692,362.217z"/><circle style="fill:#FFFFFF;" cx="107.675" cy="306.238" r="40.743"/><circle style="fill:#E95353;" cx="107.675" cy="306.238" r="28.532"/><circle style="fill:#FFFFFF;" cx="388.81" cy="306.238" r="40.743"/><circle style="fill:#E95353;" cx="388.81" cy="306.238" r="28.532"/><rect x="170.543" y="277.706" style="fill:#FF9F5F;" width="155.462" height="57.065"/><path style="fill:#1A98E5;" d="M331.186,93.386c-27.4-3.724-55.296-5.616-82.944-5.616s-55.56,1.893-82.944,5.616 c-51.914,7.059-95.791,57.391-95.961,109.956c1.21,0.403,2.389,0.915,3.739,0.962c8.58,0.512,15.794-6.361,15.794-14.926v-27.695 c0-7.215,6.004-12.707,13.39-12.521c0,0,0,0,0.171,0c0,0,0,0,0.171,0c7.215-0.171,13.39,5.322,13.39,12.521v30.611 c0,8.239,6.004,15.453,14.072,15.965c8.611,0.341,15.639-6.33,15.872-14.708v-40.882c0-8.595,7.152-15.453,15.841-15.065 c8.114,0.481,14.196,7.727,14.196,15.841v39.036c0.233,7.882,6.253,14.832,14.165,15.344c8.751,0.341,15.794-6.516,15.794-15.096 l0.171-33.264c0-8.58,7.028-15.453,15.794-15.112c8.068,0.512,14.243,7.727,14.243,15.965v36.011 c0.171,8.068,6.858,14.584,14.926,14.584c8.409,0,15.096-6.858,15.096-15.096v-42.915c0-6.858,5.663-12.521,12.707-12.521 c9.309,0,13.731,5.508,13.731,11.838v41.968c0,8.239,6.004,15.438,14.072,15.965c8.751,0.341,15.965-6.516,15.965-15.096v-31.294 c0-6.873,5.663-12.536,12.521-12.536c9.185,0,14.414,6.315,14.414,13.219v24.095c0,8.068,6.175,15.453,14.243,15.794 c8.58,0.512,15.965-6.361,15.965-14.926v-27.695c0-7.215,6.004-12.707,13.219-12.521c8.657,0,13.731,5.772,13.731,12.521v30.611 c0,8.239,6.175,15.453,14.243,15.965c2.219,0.093,4.313-0.295,6.222-1.04v-3.537C427.179,150.978,383.224,100.461,331.186,93.386z"/></symbol>
    <symbol id="subway-2" viewBox="0 0 495.833 495.833"><title>subway-2</title><path style="fill:#6F6F6F;" d="M247.924,0C111.003,0,0.008,110.995,0.008,247.917c0,55.374,18.385,106.341,49.059,147.611h397.7 c30.689-41.27,49.059-92.222,49.059-147.611C495.841,110.995,384.846,0,247.924,0z"/><path style="fill:#F3F3F3;" d="M351.891,110.033h-35.219V96.07c0-8.533-6.982-15.515-15.515-15.515H194.723 c-8.688,0-15.515,6.982-15.515,15.515v13.964h-35.219c-25.6,0-46.545,20.945-46.545,46.545V387.91 c0,25.755,20.945,46.545,46.545,46.545h207.903c25.6,0,46.545-20.79,46.545-46.545V156.579 C398.437,130.979,377.491,110.033,351.891,110.033z"/><path style="fill:#168DE2;" d="M367.345,286.006V156.641c0-8.564-6.966-15.515-15.515-15.515h-207.81 c-8.549,0-15.515,6.951-15.515,15.515v129.365H367.345z"/><circle style="fill:#FFFFFF;" cx="173.405" cy="363.442" r="35.08"/><circle style="fill:#E95353;" cx="173.405" cy="363.442" r="27.648"/><circle style="fill:#EF6C6C;" cx="166.718" cy="356.755" r="14.817"/><circle style="fill:#FFFFFF;" cx="322.444" cy="363.442" r="35.08"/><path style="fill:#CACACA;" d="M142.918,434.455l-45.475,61.378h43.722l11.202-21.302h191.147l11.202,21.302h43.722l-45.475-61.378 H142.918z M333.165,454.858H162.7l9.185-17.47h152.08L333.165,454.858z"/><path style="fill:#3AA2EB;" d="M351.829,141.126h-207.81c-8.549,0-15.515,6.951-15.515,15.515v48.64c0,5.089,3.91,9.759,9.107,9.976 c5.415,0.326,9.976-4.018,9.976-9.433v-25.693c0-4.546,3.801-8.021,8.456-7.913c0,0,0,0,0.109,0c0,0,0,0,0.109,0 c4.546-0.109,8.456,3.367,8.456,7.913v23.397c0,5.198,3.801,9.759,8.89,10.085c5.446,0.202,9.883-4.003,10.023-9.294v-23.986 c0-5.43,4.515-9.759,10.007-9.511c5.12,0.31,8.968,4.887,8.968,10.007v26.236c0.155,4.98,3.956,9.371,8.937,9.697 c5.523,0.217,9.976-4.112,9.976-9.542l0.109-28.47c0-5.415,4.437-9.759,9.976-9.542c5.089,0.326,8.999,4.872,8.999,10.085v25.678 c0.109,5.089,4.344,9.216,9.433,9.216c5.306,0,9.542-4.344,9.542-9.542v-24.142c0-4.143,3.088-7.913,8.673-7.913 c4.344-0.326,8.021,3.258,8.021,7.478v25.817c0,5.213,3.801,9.759,8.89,10.085c5.523,0.217,10.085-4.127,10.085-9.542V181.45 c0-4.344,3.584-7.913,7.913-7.913c5.818,0,9.107,4.018,9.107,8.347v22.683c0,5.089,3.91,9.759,8.999,9.976 c5.415,0.326,10.085-4.018,10.085-9.433v-24.948c0-4.546,3.801-8.021,8.347-7.913c0.109,0,0.109,0,0.109,0c0.109,0,0.109,0,0.217,0 c4.561-0.109,8.347,3.367,8.347,7.913v23.94c0,5.198,3.91,9.759,8.999,10.085c5.523,0.217,9.976-4.127,9.976-9.542v-47.957 C367.345,148.092,360.378,141.126,351.829,141.126z"/><g> <path style="fill:#E2E2E2;" d="M123.198,409.786c-0.31,6.206-5.585,11.016-11.636,11.481c-8.688-8.378-14.119-20.325-14.119-33.358 v-43.598c1.552,4.655,5.896,7.913,11.016,7.913h0.931c6.672,0.155,11.947,5.741,11.636,12.567 c-0.31,6.361-6.051,11.016-12.567,11.016h-0.155c-5.229,0-9.93,4.298-9.93,10.705c0,0.155,0,0.155,0,0.155 c-0.155,5.896,4.189,10.705,9.93,10.705h2.948C118.078,397.374,123.508,402.96,123.198,409.786z"/> <path style="fill:#E2E2E2;" d="M107.217,280.855c-3.879,0-7.447,1.707-9.775,4.344V156.579c0-13.343,5.741-25.6,14.895-34.133 c5.585,1.241,9.619,6.206,9.464,12.257c-0.465,6.361-6.206,11.171-12.722,11.171h-0.776c-5.741,0-10.085,4.81-9.93,10.55 c0,0.155,0,0.155,0,0.155s0,0,0,0.155c-0.155,5.741,4.189,10.55,9.93,10.55h2.017c6.827,0,12.257,5.741,11.947,12.567 c-0.31,6.051-5.741,10.861-11.792,11.326c-5.741,0-10.55,4.655-10.55,10.55c0,6.842,4.779,10.705,9.93,10.705h2.172 c6.827,0,12.257,5.741,11.947,12.567c-0.465,6.361-6.051,11.171-12.567,11.171h-3.258c-5.275,0-9.775,4.655-9.309,10.085 c0,6.966,4.748,10.861,9.93,10.861h1.086c6.516,0,11.947,5.275,11.947,11.947c0,6.361-5.275,11.636-11.636,11.792 C110.165,280.855,107.217,280.855,107.217,280.855z"/> <path style="fill:#E2E2E2;" d="M97.443,336.244v-35.84c2.172,2.638,5.43,4.189,8.999,4.189l6.516,0.155 c6.827,0,12.257,5.585,11.947,12.412c-0.31,6.361-5.896,11.016-12.102,11.326h-3.724C103.959,328.487,99.15,331.59,97.443,336.244z "/> <path style="fill:#E2E2E2;" d="M398.437,199.09c-1.552-4.655-5.896-7.913-11.016-7.913h-0.931 c-6.672-0.155-11.947-5.741-11.636-12.567c0.31-6.361,6.051-11.171,12.567-11.171h0.155c9.976,0,9.914-10.705,9.93-10.705 c0-0.155,0-0.155,0-0.155c0.155-5.741-4.189-10.55-9.93-10.55h-2.948c-6.827,0-12.257-5.741-11.947-12.412 c0.31-5.741,4.965-10.395,10.55-11.326C401.897,139.388,398.437,156.144,398.437,199.09z"/> <path style="fill:#E2E2E2;" d="M398.437,207.158v35.84c-2.172-2.638-5.43-4.189-8.999-4.189l-6.516-0.155 c-6.827,0-12.257-5.585-11.947-12.567c0.31-6.206,5.896-11.016,12.102-11.171h3.724 C391.921,214.916,396.73,211.813,398.437,207.158z"/> <path style="fill:#E2E2E2;" d="M388.662,262.547c3.879,0,7.447-1.707,9.775-4.499V387.91c0,13.033-5.43,24.824-13.964,33.202 c-6.051-0.776-10.55-6.051-10.395-12.412c0.465-6.361,6.206-11.326,12.722-11.326h0.776c5.322,0,9.93-3.894,9.93-10.705 c0,0,0,0,0-0.155c0.155-5.585-4.189-10.395-9.93-10.395h-2.017c-6.827,0-12.257-5.896-11.947-12.567 c0.31-6.361,6.206-11.326,12.567-11.326c5.167-0.45,9.775-4.515,9.775-11.326c0-5.43-4.499-9.93-9.93-9.93h-2.172 c-6.827,0-12.257-5.741-11.947-12.722c0.465-6.361,6.051-11.016,12.567-11.016h3.258c4.98,0,9.309-3.475,9.309-10.861 c0-5.585-4.499-10.085-9.93-10.085h-1.086c-6.516,0-11.947-5.275-11.947-11.947c0-6.361,5.275-11.636,11.636-11.792H388.662z"/> </g><circle style="fill:#E95353;" cx="322.444" cy="363.442" r="27.648"/><circle style="fill:#EF6C6C;" cx="315.757" cy="356.755" r="14.817"/></symbol>
    <symbol id="place" viewBox="0 0 496.485 496.485"><title>car-1</title><rect x="232.068" y="282.562" style="fill:#E5E5E5;" width="32.365" height="213.923"/><rect x="189.169" y="464.12" style="fill:#CACACA;" width="118.148" height="32.365"/><rect x="120.645" y="52.861" transform="matrix(-0.7071 -0.7071 0.7071 -0.7071 296.1704 483.5906)" style="fill:#E95353;" width="255.191" height="255.191"/><path style="fill:#ED6262;" d="M428.692,180.441L248.251,0l-40.867,40.867c-3.848,3.848-4.422,10.318-0.652,14.414 c3.848,4.344,10.566,4.499,14.662,0.403l13.219-13.219c3.444-3.444,8.921-3.196,12.366,0.403c0,0,0,0,0.078,0.078 c0,0,0,0,0.078,0.078c3.522,3.351,3.848,8.921,0.403,12.366l-14.615,14.615c-3.925,3.925-4.499,10.24-0.9,14.336 c3.956,4.267,10.488,4.453,14.6,0.559l19.518-19.518c4.096-4.096,10.783-3.956,14.755,0.372c3.646,4.096,3.088,10.457-0.791,14.336 L261.47,98.723c-3.646,3.879-4.096,10.069-0.559,14.072c4.018,4.344,10.643,4.422,14.739,0.326l15.95-15.794 c4.096-4.096,10.736-4.018,14.739,0.326c3.6,4.096,3.119,10.488-0.822,14.414l-17.191,17.191c-3.77,3.925-3.693,10.24,0.171,14.088 c4.018,4.018,10.488,3.925,14.414,0l20.48-20.48c3.274-3.274,8.688-3.274,12.04,0.078l0.496,0.496 c3.522,3.025,3.6,8.518,0.403,11.714l-20.03,20.03c-3.925,3.925-4.499,10.24-0.9,14.336c4.018,4.344,10.721,4.499,14.817,0.403 l14.941-14.941c3.274-3.274,8.689-3.274,11.962,0c4.406,4.406,3.848,9.914,0.574,13.188l-11.497,11.497 c-3.848,3.848-4.422,10.318-0.745,14.336c3.848,4.344,10.643,4.592,14.739,0.496l13.219-13.219 c3.444-3.444,8.937-3.196,12.288,0.326c0.078,0.078,0.078,0.078,0.078,0.078c0.078,0.078,0.078,0.078,0.171,0.155 c3.522,3.367,3.77,8.844,0.326,12.288l-14.615,14.615c-3.925,3.925-4.422,10.318-0.822,14.414 c4.018,4.344,10.643,4.422,14.739,0.326L428.692,180.441z"/><path style="fill:#DB4D4D;" d="M67.809,180.441l180.441,180.441l40.867-40.867c3.848-3.848,4.422-10.318,0.652-14.414 c-3.848-4.344-10.566-4.499-14.662-0.403l-13.219,13.219c-3.444,3.444-8.921,3.196-12.366-0.403c0,0,0,0-0.078-0.078 c0,0,0,0-0.078-0.078c-3.522-3.351-3.848-8.937-0.403-12.366l14.615-14.615c3.925-3.925,4.499-10.24,0.9-14.336 c-3.941-4.267-10.488-4.453-14.6-0.559l-19.518,19.518c-4.096,4.096-10.783,3.956-14.755-0.372 c-3.646-4.096-3.088-10.457,0.776-14.336l18.634-18.634c3.646-3.863,4.096-10.069,0.559-14.072 c-4.018-4.344-10.643-4.422-14.739-0.326l-15.95,15.794c-4.096,4.096-10.736,4.018-14.739-0.326 c-3.6-4.096-3.103-10.488,0.822-14.414l17.191-17.191c3.77-3.925,3.693-10.24-0.171-14.088c-4.018-4.018-10.488-3.925-14.414,0 l-20.48,20.48c-3.15,3.15-8.332,3.631-12.536-0.574c-3.522-3.025-3.6-8.518-0.403-11.714l20.03-20.03 c3.925-3.925,4.499-10.24,0.9-14.336c-4.018-4.344-10.721-4.499-14.817-0.403l-14.941,14.941c-3.119,3.119-8.301,3.646-12.443-0.496 c-3.522-3.522-3.522-9.263-0.078-12.691l11.497-11.497c3.848-3.848,4.422-10.318,0.745-14.336 c-3.848-4.344-10.643-4.592-14.739-0.496l-13.219,13.219c-3.444,3.444-8.921,3.196-12.288-0.326 c-0.078-0.078-0.078-0.078-0.078-0.078c-0.078-0.078-0.078-0.078-0.171-0.171c-3.522-3.351-3.77-8.844-0.326-12.288l14.615-14.615 c3.925-3.925,4.422-10.318,0.822-14.414c-4.065-4.36-10.69-4.437-14.786-0.341L67.809,180.441z"/><path style="fill:#FFFFFF;" d="M198.881,257.179v-153.46h49.726c18.835,0,31.123,0.76,36.848,2.296 c8.797,2.296,16.151,7.308,22.094,15.019c5.927,7.711,8.89,17.672,8.89,29.882c0,9.418-1.707,17.346-5.135,23.769 c-3.413,6.423-7.758,11.466-13.033,15.127c-5.275,3.662-10.628,6.082-16.074,7.277c-7.401,1.458-18.106,2.203-32.132,2.203h-20.201 v57.887H198.881z M229.865,129.676v43.551h16.958c12.21,0,20.371-0.807,24.498-2.405c4.112-1.614,7.339-4.112,9.681-7.54 c2.343-3.429,3.506-7.401,3.506-11.931c0-5.585-1.645-10.193-4.918-13.824c-3.274-3.631-7.432-5.896-12.459-6.811 c-3.693-0.698-11.124-1.04-22.295-1.04H229.865z"/></symbol>
</svg>
